<?xml version="1.0" encoding="UTF-8" standalone="no"?>
<!-- Created with Inkscape (http://www.inkscape.org/) -->

<svg
   width="210mm"
   height="297mm"
   viewBox="0 0 210 297"
   version="1.1"
   id="svg59532"
   inkscape:version="1.1 (c68e22c387, 2021-05-23)"
   sodipodi:docname="drawing.svg"
   xmlns:inkscape="http://www.inkscape.org/namespaces/inkscape"
   xmlns:sodipodi="http://sodipodi.sourceforge.net/DTD/sodipodi-0.dtd"
   xmlns="http://www.w3.org/2000/svg"
   xmlns:svg="http://www.w3.org/2000/svg">
  <sodipodi:namedview
     id="namedview59534"
     pagecolor="#ffffff"
     bordercolor="#666666"
     borderopacity="1.0"
     inkscape:pageshadow="2"
     inkscape:pageopacity="0.0"
     inkscape:pagecheckerboard="0"
     inkscape:document-units="mm"
     showgrid="false"
     inkscape:zoom="0.76791526"
     inkscape:cx="649.16017"
     inkscape:cy="561.91096"
     inkscape:window-width="1920"
     inkscape:window-height="1001"
     inkscape:window-x="-9"
     inkscape:window-y="154"
     inkscape:window-maximized="1"
     inkscape:current-layer="layer1" />
  <defs
     id="defs59529" />
  <g
     inkscape:label="Layer 1"
     inkscape:groupmode="layer"
     id="layer1">
    <g
       id="g59479"
       transform="matrix(0.26458333,0,0,0.26458333,5.7974158,84.880834)"
       inkscape:export-filename="C:\Users\Mark\g59479.png"
       inkscape:export-xdpi="96"
       inkscape:export-ydpi="96">
      <path
         style="fill:#b9b9b9;fill-opacity:1"
         d="m 362.76791,427.27527 c 1.79735,-0.22256 4.49735,-0.21797 6,0.0102 1.50265,0.22818 0.0321,0.41027 -3.26791,0.40466 -3.3,-0.006 -4.52944,-0.1923 -2.73209,-0.41486 z m 20,0 c 1.79735,-0.22256 4.49735,-0.21797 6,0.0102 1.50265,0.22818 0.0321,0.41027 -3.26791,0.40466 -3.3,-0.006 -4.52944,-0.1923 -2.73209,-0.41486 z m -33.00625,-0.98253 c 1.24391,-0.23919 3.04391,-0.23011 4,0.0202 0.95609,0.25029 -0.0617,0.446 -2.26166,0.4349 -2.2,-0.0111 -2.98225,-0.21589 -1.73834,-0.45508 z m 48.50737,0.0143 c 0.97297,-0.25354 2.32297,-0.23687 3,0.0371 0.67703,0.27393 -0.11903,0.48137 -1.76903,0.46099 -1.65,-0.0204 -2.20394,-0.2445 -1.23097,-0.49804 z M 338.75,425.33772 c 0.6875,-0.27741 1.8125,-0.27741 2.5,0 0.6875,0.27741 0.125,0.50439 -1.25,0.50439 -1.375,0 -1.9375,-0.22698 -1.25,-0.50439 z m 71,0 c 0.6875,-0.27741 1.8125,-0.27741 2.5,0 0.6875,0.27741 0.125,0.50439 -1.25,0.50439 -1.375,0 -1.9375,-0.22698 -1.25,-0.50439 z m -80,-1 c 0.6875,-0.27741 1.8125,-0.27741 2.5,0 0.6875,0.27741 0.125,0.50439 -1.25,0.50439 -1.375,0 -1.9375,-0.22698 -1.25,-0.50439 z m 89,0 c 0.6875,-0.27741 1.8125,-0.27741 2.5,0 0.6875,0.27741 0.125,0.50439 -1.25,0.50439 -1.375,0 -1.9375,-0.22698 -1.25,-0.50439 z m -98,-1 c 0.6875,-0.27741 1.8125,-0.27741 2.5,0 0.6875,0.27741 0.125,0.50439 -1.25,0.50439 -1.375,0 -1.9375,-0.22698 -1.25,-0.50439 z m 107.0625,-0.0208 c 0.72187,-0.28887 1.58438,-0.25335 1.91667,0.0789 0.33229,0.33229 -0.25834,0.56864 -1.3125,0.52522 -1.16495,-0.048 -1.4019,-0.28494 -0.60417,-0.60416 z M 354.25,402.28375 c 1.5125,-0.22913 3.9875,-0.22913 5.5,0 1.5125,0.22912 0.275,0.41659 -2.75,0.41659 -3.025,0 -4.2625,-0.18747 -2.75,-0.41659 z m 36,0 c 1.5125,-0.22913 3.9875,-0.22913 5.5,0 1.5125,0.22912 0.275,0.41659 -2.75,0.41659 -3.025,0 -4.2625,-0.18747 -2.75,-0.41659 z m -49.5,-0.94603 c 0.6875,-0.27741 1.8125,-0.27741 2.5,0 0.6875,0.27741 0.125,0.50439 -1.25,0.50439 -1.375,0 -1.9375,-0.22698 -1.25,-0.50439 z m 65.51903,-0.0307 c 0.97297,-0.25354 2.32297,-0.23687 3,0.0371 0.67703,0.27393 -0.11903,0.48137 -1.76903,0.46099 -1.65,-0.0204 -2.20394,-0.2445 -1.23097,-0.49804 z m 10.54347,-0.99012 c 0.72187,-0.28887 1.58438,-0.25335 1.91667,0.0789 0.33229,0.33229 -0.25834,0.56864 -1.3125,0.52522 -1.16495,-0.048 -1.4019,-0.28494 -0.60417,-0.60416 z m -98,-2 c 0.72187,-0.28887 1.58438,-0.25335 1.91667,0.0789 0.33229,0.33229 -0.25834,0.56864 -1.3125,0.52522 -1.16495,-0.048 -1.4019,-0.28494 -0.60417,-0.60416 z m 111,0 c 0.72187,-0.28887 1.58438,-0.25335 1.91667,0.0789 0.33229,0.33229 -0.25834,0.56864 -1.3125,0.52522 -1.16495,-0.048 -1.4019,-0.28494 -0.60417,-0.60416 z m 11,-2 c 0.72187,-0.28887 1.58438,-0.25335 1.91667,0.0789 0.33229,0.33229 -0.25834,0.56864 -1.3125,0.52522 -1.16495,-0.048 -1.4019,-0.28494 -0.60417,-0.60416 z M 546,378.62244 c 0,-0.20765 0.7875,-0.99515 1.75,-1.75 1.58606,-1.24387 1.62143,-1.2085 0.37756,0.37756 C 546.82119,378.91575 546,379.44548 546,378.62244 Z M 199.87244,375.25 c -1.24387,-1.58606 -1.2085,-1.62143 0.37756,-0.37756 0.9625,0.75485 1.75,1.54235 1.75,1.75 0,0.82304 -0.82119,0.29331 -2.12756,-1.37244 z M 550,375.62244 c 0,-0.20765 0.7875,-0.99515 1.75,-1.75 1.58606,-1.24387 1.62143,-1.2085 0.37756,0.37756 C 550.82119,375.91575 550,376.44548 550,375.62244 Z M 195.40499,371.75 193.5,369.5 l 2.25,1.90499 c 2.11444,1.79022 2.70524,2.59501 1.90499,2.59501 -0.18976,0 -1.20226,-1.0125 -2.25,-2.25 z m -9.94258,-9 -4.96241,-5.25 5.25,4.96241 c 4.87839,4.61116 5.7086,5.53759 4.96241,5.53759 -0.15818,0 -2.52068,-2.3625 -5.25,-5.25 z M 560,366.62244 c 0,-0.20765 0.7875,-0.99515 1.75,-1.75 1.58606,-1.24387 1.62143,-1.2085 0.37756,0.37756 C 560.82119,366.91575 560,367.44548 560,366.62244 Z M 569,357.5 c 1.29175,-1.375 2.57363,-2.5 2.84863,-2.5 0.275,0 -0.55688,1.125 -1.84863,2.5 -1.29175,1.375 -2.57363,2.5 -2.84863,2.5 -0.275,0 0.55688,-1.125 1.84863,-2.5 z m -37,1.12244 c 0,-0.20765 0.7875,-0.99515 1.75,-1.75 1.58606,-1.24387 1.62143,-1.2085 0.37756,0.37756 C 532.82119,358.91575 532,359.44548 532,358.62244 Z M 214.87244,356.25 c -1.24387,-1.58606 -1.2085,-1.62143 0.37756,-0.37756 0.9625,0.75485 1.75,1.54235 1.75,1.75 0,0.82304 -0.82119,0.29331 -2.12756,-1.37244 z m -37.46745,-2.5 -1.90499,-2.25 2.25,1.90499 c 2.11444,1.79022 2.70524,2.59501 1.90499,2.59501 -0.18976,0 -1.20226,-1.0125 -2.25,-2.25 z M 536,355.62244 c 0,-0.20765 0.7875,-0.99515 1.75,-1.75 1.58606,-1.24387 1.62143,-1.2085 0.37756,0.37756 C 536.82119,355.91575 536,356.44548 536,355.62244 Z M 208.87244,351.25 c -1.24387,-1.58606 -1.2085,-1.62143 0.37756,-0.37756 1.66575,1.30637 2.19548,2.12756 1.37244,2.12756 -0.20765,0 -0.99515,-0.7875 -1.75,-1.75 z M 547,345.5 c 1.86578,-1.925 3.61733,-3.5 3.89233,-3.5 0.275,0 -1.02655,1.575 -2.89233,3.5 -1.86578,1.925 -3.61733,3.5 -3.89233,3.5 -0.275,0 1.02655,-1.575 2.89233,-3.5 z M 197.40499,339.75 195.5,337.5 l 2.25,1.90499 c 2.11444,1.79022 2.70524,2.59501 1.90499,2.59501 -0.18976,0 -1.20226,-1.0125 -2.25,-2.25 z M 554,337.62244 c 0,-0.20765 0.7875,-0.99515 1.75,-1.75 1.58606,-1.24387 1.62143,-1.2085 0.37756,0.37756 C 554.82119,337.91575 554,338.44548 554,337.62244 Z m -360.57115,-2.59359 c -0.53413,-0.53413 -7.48663,-1.11001 -15.45,-1.27974 L 163.5,333.44052 l 14.62756,-0.22026 c 11.9743,-0.18031 14.85336,0.0518 15.87244,1.27974 1.38003,1.66284 0.95572,2.05572 -0.57115,0.52885 z M 571.5,334 l -14,-0.58634 14.25,-0.20683 C 580.72122,333.07662 586,333.37044 586,334 c 0,0.55 -0.1125,0.90693 -0.25,0.79317 C 585.6125,334.67941 579.2,334.32249 571.5,334 Z m -310.50335,-42.297 0.49664,-15.203 0.28186,14.4215 c 0.15502,7.93182 -0.0685,14.77317 -0.49665,15.203 -0.42817,0.42983 -0.55501,-6.05984 -0.28185,-14.4215 z m 26.44618,14.00861 c -0.27192,-0.70861 -0.35834,-8.69611 -0.19205,-17.75 l 0.30235,-16.46161 0.22344,17.16667 c 0.16431,12.62459 0.55416,17.30012 1.47343,17.67105 0.97906,0.39506 0.97226,0.5215 -0.0314,0.58333 -0.70477,0.0434 -1.50387,-0.50082 -1.77579,-1.20944 z m 47.06425,0.29984 c -0.35034,-0.56686 0.0511,-0.7345 0.94098,-0.39301 1.73242,0.66479 2.04939,1.38156 0.61096,1.38156 -0.51754,0 -1.21592,-0.44485 -1.55194,-0.98855 z m 200.93813,-0.29362 c -0.2706,-0.7052 -0.36777,-9.5927 -0.21591,-19.75 l 0.2761,-18.46783 0.4973,19.75107 c 0.27351,10.86309 0.37068,19.75059 0.21592,19.75 -0.15477,-5.9e-4 -0.5028,-0.57805 -0.77341,-1.28324 z M 565.3605,289 c 0,-5.225 0.16854,-7.3625 0.37454,-4.75 0.206,2.6125 0.206,6.8875 0,9.5 -0.206,2.6125 -0.37454,0.475 -0.37454,-4.75 z m -164.96056,-6.5 c 10e-4,-8.25 0.15629,-11.49193 0.34419,-7.20429 0.1879,4.28763 0.18676,11.03763 -0.003,15 -0.1893,3.96236 -0.34304,0.45429 -0.34164,-7.79571 z m -99.58744,-6.18311 c 0.72187,-0.28887 1.58438,-0.25335 1.91667,0.0789 0.33229,0.33229 -0.25834,0.56864 -1.3125,0.52522 -1.16495,-0.048 -1.4019,-0.28494 -0.60417,-0.60416 z M 271.15789,272 c 0,-1.375 0.22698,-1.9375 0.50439,-1.25 0.27741,0.6875 0.27741,1.8125 0,2.5 -0.27741,0.6875 -0.50439,0.125 -0.50439,-1.25 z M 89.451395,206.5 c -3.26e-4,-19.8 0.133242,-28.04173 0.296816,-18.31497 0.163575,9.72677 0.163841,25.92677 5.92e-4,36 C 89.585554,234.25827 89.451721,226.3 89.451395,206.5 Z m 50.891415,28 c 0.004,-4.4 0.17944,-6.07561 0.39069,-3.72357 0.21124,2.35204 0.20827,5.95204 -0.007,8 -0.21487,2.04796 -0.38771,0.12357 -0.38408,-4.27643 z M 154.44825,209 c 0,-18.425 0.13502,-25.9625 0.30005,-16.75 0.16503,9.2125 0.16503,24.2875 0,33.5 -0.16503,9.2125 -0.30005,1.675 -0.30005,-16.75 z m 324.70964,30 c 0,-1.375 0.22698,-1.9375 0.50439,-1.25 0.27741,0.6875 0.27741,1.8125 0,2.5 -0.27741,0.6875 -0.50439,0.125 -0.50439,-1.25 z M 277,237.62244 c 0,-0.20765 0.7875,-0.99515 1.75,-1.75 1.58606,-1.24387 1.62143,-1.2085 0.37756,0.37756 C 277.82119,237.91575 277,238.44548 277,237.62244 Z M 444.15789,234 c 0,-1.375 0.22698,-1.9375 0.50439,-1.25 0.27741,0.6875 0.27741,1.8125 0,2.5 -0.27741,0.6875 -0.50439,0.125 -0.50439,-1.25 z m 54.03706,-1.5 c 0.0204,-1.65 0.2445,-2.20394 0.49804,-1.23097 0.25354,0.97297 0.23687,2.32297 -0.0371,3 -0.27393,0.67703 -0.48137,-0.11903 -0.46099,-1.76903 z m -128.32251,-6.25 c -1.24387,-1.58606 -1.2085,-1.62143 0.37756,-0.37756 1.66575,1.30637 2.19548,2.12756 1.37244,2.12756 -0.20765,0 -0.99515,-0.7875 -1.75,-1.75 z m -14.67749,-4.75 c 0.0204,-1.65 0.2445,-2.20394 0.49804,-1.23097 0.25354,0.97297 0.23687,2.32297 -0.0371,3 -0.27393,0.67703 -0.48137,-0.11903 -0.46099,-1.76903 z M 284.15789,221 c 0,-1.375 0.22698,-1.9375 0.50439,-1.25 0.27741,0.6875 0.27741,1.8125 0,2.5 -0.27741,0.6875 -0.50439,0.125 -0.50439,-1.25 z m 142,-4 c 0,-1.375 0.22698,-1.9375 0.50439,-1.25 0.27741,0.6875 0.27741,1.8125 0,2.5 -0.27741,0.6875 -0.50439,0.125 -0.50439,-1.25 z m -37,-3 c 0,-1.375 0.22698,-1.9375 0.50439,-1.25 0.27741,0.6875 0.27741,1.8125 0,2.5 -0.27741,0.6875 -0.50439,0.125 -0.50439,-1.25 z m 19,0 c 0,-1.375 0.22698,-1.9375 0.50439,-1.25 0.27741,0.6875 0.27741,1.8125 0,2.5 -0.27741,0.6875 -0.50439,0.125 -0.50439,-1.25 z m 88.92106,-8.58333 c 0.048,-1.16495 0.28494,-1.4019 0.60416,-0.60417 0.28887,0.72187 0.25335,1.58437 -0.0789,1.91667 -0.33229,0.33229 -0.56864,-0.25834 -0.52522,-1.3125 z M 337.15789,202 c 0,-1.375 0.22698,-1.9375 0.50439,-1.25 0.27741,0.6875 0.27741,1.8125 0,2.5 -0.27741,0.6875 -0.50439,0.125 -0.50439,-1.25 z m 307.92106,-0.58333 c 0.048,-1.16495 0.28494,-1.4019 0.60416,-0.60417 0.28887,0.72187 0.25335,1.58437 -0.0789,1.91667 -0.33229,0.33229 -0.56864,-0.25834 -0.52522,-1.3125 z M 645.38854,183.5 c 0.002,-7.15 0.16103,-9.94379 0.35396,-6.20841 0.19293,3.73537 0.19149,9.58537 -0.003,13 -0.19468,3.41462 -0.35253,0.35841 -0.35078,-6.79159 z m 33.69041,7.91667 c 0.048,-1.16495 0.28494,-1.4019 0.60416,-0.60417 0.28887,0.72187 0.25335,1.58437 -0.0789,1.91667 -0.33229,0.33229 -0.56864,-0.25834 -0.52522,-1.3125 z m -272,-1 c 0.048,-1.16495 0.28494,-1.4019 0.60416,-0.60417 0.28887,0.72187 0.25335,1.58437 -0.0789,1.91667 -0.33229,0.33229 -0.56864,-0.25834 -0.52522,-1.3125 z M 427.15789,186 c 0,-1.375 0.22698,-1.9375 0.50439,-1.25 0.27741,0.6875 0.27741,1.8125 0,2.5 -0.27741,0.6875 -0.50439,0.125 -0.50439,-1.25 z m 68.92106,-1.58333 c 0.048,-1.16495 0.28494,-1.4019 0.60416,-0.60417 0.28887,0.72187 0.25335,1.58437 -0.0789,1.91667 -0.33229,0.33229 -0.56864,-0.25834 -0.52522,-1.3125 z M 395,178.62244 c 0,-0.20765 0.7875,-0.99515 1.75,-1.75 1.58606,-1.24387 1.62143,-1.2085 0.37756,0.37756 C 395.82119,178.91575 395,179.44548 395,178.62244 Z M 338.15789,174 c 0,-1.375 0.22698,-1.9375 0.50439,-1.25 0.27741,0.6875 0.27741,1.8125 0,2.5 -0.27741,0.6875 -0.50439,0.125 -0.50439,-1.25 z m -184.07894,-0.58333 c 0.048,-1.16495 0.28494,-1.4019 0.60416,-0.60417 0.28887,0.72187 0.25335,1.58437 -0.0789,1.91667 -0.3323,0.33229 -0.56864,-0.25834 -0.52522,-1.3125 z M 400.5,173 c 0.99549,-1.1 2.03498,-2 2.30998,-2 0.275,0 -0.31449,0.9 -1.30998,2 -0.99549,1.1 -2.03498,2 -2.30998,2 -0.275,0 0.31449,-0.9 1.30998,-2 z M 341.40499,129.75 339.5,127.5 l 2.25,1.90499 c 1.2375,1.04774 2.25,2.06024 2.25,2.25 0,0.80025 -0.80479,0.20945 -2.59501,-1.90499 z M 400.5,130 c 0.99549,-1.1 2.03498,-2 2.30998,-2 0.275,0 -0.31449,0.9 -1.30998,2 -0.99549,1.1 -2.03498,2 -2.30998,2 -0.275,0 0.31449,-0.9 1.30998,-2 z M 189,127 c 0.5887,-1.1 1.29537,-2 1.57037,-2 0.275,0 0.0183,0.9 -0.57037,2 -0.5887,1.1 -1.29537,2 -1.57037,2 -0.275,0 -0.0183,-0.9 0.57037,-2 z m 146.43709,-3.25 -2.93709,-3.25 3.25,2.93709 c 3.02946,2.73778 3.70965,3.56291 2.93709,3.56291 -0.1721,0 -1.6346,-1.4625 -3.25,-3.25 z M 197,115.62244 c 0,-0.20765 0.7875,-0.99515 1.75,-1.75 1.58606,-1.24387 1.62143,-1.2085 0.37756,0.37756 C 197.82119,115.91575 197,116.44548 197,115.62244 Z m 186,-1 c 0,-0.20765 0.7875,-0.99515 1.75,-1.75 1.58606,-1.24387 1.62143,-1.2085 0.37756,0.37756 C 383.82119,114.91575 383,115.44548 383,114.62244 Z M 354.45295,109.75 350.5,105.5 l 4.25,3.95295 c 2.3375,2.17412 4.25,4.08662 4.25,4.25 0,0.75658 -0.87085,-4.9e-4 -4.54705,-3.95295 z M 326,111 c -0.5887,-1.1 -0.84537,-2 -0.57037,-2 0.275,0 0.98167,0.9 1.57037,2 0.5887,1.1 0.84537,2 0.57037,2 -0.275,0 -0.98167,-0.9 -1.57037,-2 z m 222.87244,0.25 c -1.24387,-1.58606 -1.2085,-1.62143 0.37756,-0.37756 1.66575,1.30637 2.19548,2.12756 1.37244,2.12756 -0.20765,0 -0.99515,-0.7875 -1.75,-1.75 z M 390.5,107 c 0.99549,-1.1 2.03498,-2 2.30998,-2 0.275,0 -0.31449,0.9 -1.30998,2 -0.99549,1.1 -2.03498,2 -2.30998,2 -0.275,0 0.31449,-0.9 1.30998,-2 z M 179,100.62244 c 0,-0.20765 0.7875,-0.995151 1.75,-1.749995 1.58606,-1.243871 1.62143,-1.208501 0.37756,0.377555 C 179.82119,100.91575 179,101.44548 179,100.62244 Z M 214,97.5 c 1.29175,-1.375 2.57363,-2.5 2.84863,-2.5 0.275,0 -0.55688,1.125 -1.84863,2.5 -1.29175,1.375 -2.57363,2.5 -2.84863,2.5 -0.275,0 0.55688,-1.125 1.84863,-2.5 z M 565.87244,95.25 C 564.62857,93.663944 564.66394,93.628574 566.25,94.872445 567.91575,96.178814 568.44548,97 567.62244,97 c -0.20765,0 -0.99515,-0.7875 -1.75,-1.75 z M 531.40499,93.75 529.5,91.5 l 2.25,1.904988 c 1.2375,1.047743 2.25,2.060243 2.25,2.25 0,0.800253 -0.80479,0.209457 -2.59501,-1.904988 z M 186.5,92 c 0.99549,-1.1 2.03498,-2 2.30998,-2 0.275,0 -0.31449,0.9 -1.30998,2 -0.99549,1.1 -2.03498,2 -2.30998,2 -0.275,0 0.31449,-0.9 1.30998,-2 z m 101.76903,1.307009 c 0.97297,-0.253543 2.32297,-0.236869 3,0.03705 0.67703,0.273923 -0.11903,0.481368 -1.76903,0.460988 -1.65,-0.02038 -2.20394,-0.244498 -1.23097,-0.498042 z m 12.98097,0.0037 c 0.9625,-0.251527 2.5375,-0.251527 3.5,0 0.9625,0.251528 0.175,0.457323 -1.75,0.457323 -1.925,0 -2.7125,-0.205795 -1.75,-0.457323 z m 137.01903,-0.0037 c 0.97297,-0.253543 2.32297,-0.236869 3,0.03705 0.67703,0.273923 -0.11903,0.481368 -1.76903,0.460988 -1.65,-0.02038 -2.20394,-0.244498 -1.23097,-0.498042 z m 14,0 c 0.97297,-0.253543 2.32297,-0.236869 3,0.03705 0.67703,0.273923 -0.11903,0.481368 -1.76903,0.460988 -1.65,-0.02038 -2.20394,-0.244498 -1.23097,-0.498042 z M 310.8125,92.316886 c 0.72187,-0.288871 1.58438,-0.253344 1.91667,0.07895 0.33229,0.332292 -0.25834,0.568641 -1.3125,0.52522 -1.16495,-0.04798 -1.4019,-0.284941 -0.60417,-0.604167 z m 119.9375,0.02083 c 0.6875,-0.277412 1.8125,-0.277412 2.5,0 0.6875,0.277413 0.125,0.504386 -1.25,0.504386 -1.375,0 -1.9375,-0.226973 -1.25,-0.504386 z M 221,91.622445 c 0,-0.207656 0.7875,-0.995156 1.75,-1.75 1.58606,-1.243871 1.62143,-1.208501 0.37756,0.377555 C 221.82119,91.915748 221,92.445479 221,91.622445 Z m 95.26903,-0.315436 c 0.97297,-0.253543 2.32297,-0.236869 3,0.03705 0.67703,0.273923 -0.11903,0.481368 -1.76903,0.460988 -1.65,-0.02038 -2.20394,-0.244498 -1.23097,-0.498042 z M 423.75,91.337719 c 0.6875,-0.277412 1.8125,-0.277412 2.5,0 0.6875,0.277413 0.125,0.504386 -1.25,0.504386 -1.375,0 -1.9375,-0.226973 -1.25,-0.504386 z M 525.87244,89.25 c -1.24387,-1.586056 -1.2085,-1.621426 0.37756,-0.377555 0.9625,0.754844 1.75,1.542344 1.75,1.75 0,0.823034 -0.82119,0.293303 -2.12756,-1.372445 z M 342.19495,85.5 c 0.0204,-1.65 0.2445,-2.203936 0.49804,-1.230968 0.25354,0.972967 0.23687,2.322967 -0.0371,3 C 342.38201,87.946064 342.17457,87.15 342.19495,85.5 Z m 57.72596,-0.749093 c -0.29765,-2.149734 -0.14485,-3.374851 0.35817,-2.871823 0.4825,0.482499 0.71609,2.169591 0.5191,3.749094 -0.32972,2.643618 -0.39943,2.573907 -0.87727,-0.877271 z M 199,79.5 c 1.29175,-1.375 2.57363,-2.5 2.84863,-2.5 0.275,0 -0.55688,1.125 -1.84863,2.5 -1.29175,1.375 -2.57363,2.5 -2.84863,2.5 -0.275,0 0.55688,-1.125 1.84863,-2.5 z M 342.232,79 c 0,-1.925 0.2058,-2.7125 0.45733,-1.75 0.25152,0.9625 0.25152,2.5375 0,3.5 C 342.4378,81.7125 342.232,80.925 342.232,79 Z M 545.92431,75.25 543.5,72.5 l 2.75,2.424314 c 1.5125,1.333373 2.75,2.570873 2.75,2.75 0,0.784274 -0.8098,0.145975 -3.07569,-2.424314 z M 383.40499,70.75 381.5,68.5 l 2.25,1.904988 C 385.86444,72.195206 386.45524,73 385.65499,73 c -0.18976,0 -1.20226,-1.0125 -2.25,-2.25 z m -88.13596,-0.442991 c 0.97297,-0.253543 2.32297,-0.236869 3,0.03705 0.67703,0.273923 -0.11903,0.481368 -1.76903,0.460988 -1.65,-0.02038 -2.20394,-0.244498 -1.23097,-0.498042 z M 444.75,70.337719 c 0.6875,-0.277412 1.8125,-0.277412 2.5,0 0.6875,0.277413 0.125,0.504386 -1.25,0.504386 -1.375,0 -1.9375,-0.226973 -1.25,-0.504386 z m -162,-1 c 0.6875,-0.277412 1.8125,-0.277412 2.5,0 0.6875,0.277413 0.125,0.504386 -1.25,0.504386 -1.375,0 -1.9375,-0.226973 -1.25,-0.504386 z m 24.0625,-0.02083 c 0.72187,-0.288871 1.58438,-0.253344 1.91667,0.07895 0.33229,0.332292 -0.25834,0.568641 -1.3125,0.52522 -1.16495,-0.04798 -1.4019,-0.284941 -0.60417,-0.604167 z m 128,0 c 0.72187,-0.288871 1.58438,-0.253344 1.91667,0.07895 0.33229,0.332292 -0.25834,0.568641 -1.3125,0.52522 -1.16495,-0.04798 -1.4019,-0.284941 -0.60417,-0.604167 z M 471,65.606989 c 0,-0.216156 0.69837,-0.661002 1.55194,-0.988546 0.88992,-0.341496 1.29132,-0.173849 0.94098,0.393011 C 472.90566,65.961658 471,66.416902 471,65.606989 Z M 374.92431,62.25 372.5,59.5 l 2.75,2.424314 c 1.5125,1.333373 2.75,2.570873 2.75,2.75 0,0.784274 -0.8098,0.145975 -3.07569,-2.424314 z m 104.63998,-1.543128 c 0.37553,-0.986221 0.93469,-1.541221 1.24258,-1.233333 0.30789,0.307887 6.4e-4,1.114794 -0.68278,1.793128 -0.98762,0.980267 -1.10248,0.865403 -0.5598,-0.559795 z M 354.5,54 c 2.14824,-2.2 4.1309,-4 4.4059,-4 0.275,0 -1.25766,1.8 -3.4059,4 -2.14824,2.2 -4.1309,4 -4.4059,4 -0.275,0 1.25766,-1.8 3.4059,-4 z m 13.37244,-0.75 c -1.24387,-1.586056 -1.2085,-1.621426 0.37756,-0.377555 0.9625,0.754844 1.75,1.542344 1.75,1.75 0,0.823034 -0.82119,0.293303 -2.12756,-1.372445 z M 240.08029,51 C 241.5381,47.938968 242,47.371661 242,48.642204 c 0,0.536545 -0.69982,1.849045 -1.55517,2.916666 -1.46637,1.830306 -1.48719,1.798398 -0.36454,-0.55887 z M 268.5,49 c 0.99549,-1.1 2.03498,-2 2.30998,-2 0.275,0 -0.31449,0.9 -1.30998,2 -0.99549,1.1 -2.03498,2 -2.30998,2 -0.275,0 0.31449,-0.9 1.30998,-2 z M 469.92431,45.25 467.5,42.5 l 2.75,2.424314 c 1.5125,1.333373 2.75,2.570873 2.75,2.75 0,0.784274 -0.8098,0.145975 -3.07569,-2.424314 z m -80.05187,-1 C 388.62857,42.663944 388.66394,42.628574 390.25,43.872445 391.91575,45.178814 392.44548,46 391.62244,46 c -0.20765,0 -0.99515,-0.7875 -1.75,-1.75 z M 274.5,43 c 0.99549,-1.1 2.03498,-2 2.30998,-2 0.275,0 -0.31449,0.9 -1.30998,2 -0.99549,1.1 -2.03498,2 -2.30998,2 -0.275,0 0.31449,-0.9 1.30998,-2 z m 65,-7 c 2.14824,-2.2 4.1309,-4 4.4059,-4 0.275,0 -1.25766,1.8 -3.4059,4 -2.14824,2.2 -4.1309,4 -4.4059,4 -0.275,0 1.25766,-1.8 3.4059,-4 z m -83.54179,-7.25 c 2.45201,-2.6125 4.58951,-4.75 4.75,-4.75 0.75088,0 -0.043,0.897827 -4.45821,5.041792 L 251.5,33.5 Z m 230.47888,0 -2.93709,-3.25 3.25,2.937091 c 1.7875,1.6154 3.25,3.0779 3.25,3.25 0,0.772561 -0.82513,0.09236 -3.56291,-2.937091 z m -140.10376,0.793989 c 0,-0.800807 0.38234,-1.219712 0.84965,-0.930902 0.4673,0.28881 0.59075,0.944015 0.27431,1.456011 -0.80862,1.308382 -1.12396,1.161058 -1.12396,-0.525109 z M 311.8125,25.316886 c 0.72187,-0.288871 1.58438,-0.253344 1.91667,0.07895 0.33229,0.332292 -0.25834,0.568641 -1.3125,0.52522 -1.16495,-0.04798 -1.4019,-0.284941 -0.60417,-0.604167 z m 118,0 c 0.72187,-0.288871 1.58438,-0.253344 1.91667,0.07895 0.33229,0.332292 -0.25834,0.568641 -1.3125,0.52522 -1.16495,-0.04798 -1.4019,-0.284941 -0.60417,-0.604167 z M 321.75,24.294267 c 1.2375,-0.238353 3.2625,-0.238353 4.5,0 1.2375,0.238353 0.225,0.433369 -2.25,0.433369 -2.475,0 -3.4875,-0.195016 -2.25,-0.433369 z m 94.51375,-0.01185 c 1.52006,-0.229855 3.77006,-0.223712 5,0.01365 1.22994,0.237362 -0.0138,0.425424 -2.76375,0.417917 -2.75,-0.0075 -3.75631,-0.201713 -2.23625,-0.431567 z M 478.87244,22.25 c -1.24387,-1.586056 -1.2085,-1.621426 0.37756,-0.377555 0.9625,0.754844 1.75,1.542344 1.75,1.75 0,0.823034 -0.82119,0.293303 -2.12756,-1.372445 z M 307.8125,2.316886 c 0.72187,-0.2888706 1.58438,-0.2533443 1.91667,0.078947 0.33229,0.3322917 -0.25834,0.5686404 -1.3125,0.5252193 -1.16495,-0.047984 -1.4019,-0.2849403 -0.60417,-0.6041663 z m 95,0 c 0.72187,-0.2888706 1.58438,-0.2533443 1.91667,0.078947 0.33229,0.3322917 -0.25834,0.5686404 -1.3125,0.5252193 -1.16495,-0.047984 -1.4019,-0.2849403 -0.60417,-0.6041663 z M 315.75,1.3377193 c 0.6875,-0.2774123 1.8125,-0.2774123 2.5,0 0.6875,0.2774123 0.125,0.504386 -1.25,0.504386 -1.375,0 -1.9375,-0.2269737 -1.25,-0.504386 z m 14.0625,-0.020833 c 0.72187,-0.2888706 1.58438,-0.2533443 1.91667,0.078947 0.33229,0.3322917 -0.25834,0.5686404 -1.3125,0.5252193 -1.16495,-0.047984 -1.4019,-0.2849403 -0.60417,-0.6041663 z m 80.9375,0.020833 c 0.6875,-0.2774123 1.8125,-0.2774123 2.5,0 0.6875,0.2774123 0.125,0.504386 -1.25,0.504386 -1.375,0 -1.9375,-0.2269737 -1.25,-0.504386 z m 14,0 c 0.6875,-0.2774123 1.8125,-0.2774123 2.5,0 0.6875,0.2774123 0.125,0.504386 -1.25,0.504386 -1.375,0 -1.9375,-0.2269737 -1.25,-0.504386 z"
         id="path59493" />
      <path
         style="fill:#a3a3a3;fill-opacity:1"
         d="m 359.5,426.9223 c -29.03306,-2.05984 -54.8028,-5.92416 -73.11719,-10.96433 -9.74631,-2.68222 -31.1785,-9.82985 -33.88281,-11.2999 -1.1,-0.59796 -2.24478,-1.10315 -2.54394,-1.12263 -2.41344,-0.15723 -17.78951,-7.9959 -17.28518,-8.81193 0.36567,-0.59167 0.15117,-0.73157 -0.50237,-0.32766 -1.91428,1.18309 -19.42788,-9.63873 -33.29331,-20.57225 C 185.84635,363.54975 172.18516,348.14991 166.87433,337.75 L 164.95935,334 h 13.45843 13.45843 l 11.96079,12 c 6.57844,6.6 12.26315,12 12.6327,12 0.36955,0 3.45255,1.97698 6.85111,4.39329 8.47146,6.02304 23.95252,14.15499 37.43453,19.66375 6.19044,2.52941 10.91544,4.97349 10.5,5.43127 -0.41543,0.45779 -0.19863,0.51221 0.4818,0.12095 0.68043,-0.39127 5.40543,0.61867 10.5,2.24432 12.23434,3.9039 29.54227,7.7204 47.04039,10.37266 19.38368,2.93807 69.36442,3.19992 88.72247,0.46482 25.9198,-3.66221 48.91485,-9.49542 69.35106,-17.59245 7.06809,-2.80045 13.32512,-4.79874 13.90451,-4.44066 0.5794,0.35809 0.77519,0.20084 0.4351,-0.34944 -0.6098,-0.98668 8.94971,-6.04388 10.50714,-5.55851 0.4412,0.1375 0.80219,-0.15342 0.80219,-0.64649 0,-0.49308 3.4875,-3.05068 7.75,-5.68357 4.2625,-2.63289 10.45,-6.83815 13.75,-9.34503 6.45829,-4.9061 22.5,-20.72367 22.5,-22.18562 0,-0.48911 6.3,-0.88929 14,-0.88929 7.7,0 14,0.29796 14,0.66214 0,1.54585 -5.18097,9.33786 -6.20882,9.33786 -0.61848,0 -0.84228,0.28224 -0.49732,0.62719 2.41636,2.41637 -27.29609,32.72553 -30.27589,30.88392 -0.58714,-0.36288 -0.94387,-0.10955 -0.79275,0.56293 0.46559,2.07179 -15.95669,12.65613 -31.72522,20.44725 -15.63159,7.72346 -33.99056,14.9116 -35.57855,13.93017 C 479.41465,410.13824 479,410.30728 479,410.8271 c 0,1.24778 -19.44353,6.591 -35.18593,9.66933 -26.73223,5.22734 -62.63731,7.96379 -84.31407,6.42587 z m 73.22917,-9.52647 c -0.33229,-0.33229 -1.1948,-0.36781 -1.91667,-0.0789 -0.79773,0.31922 -0.56078,0.55618 0.60417,0.60416 1.05416,0.0434 1.64479,-0.19293 1.3125,-0.52522 z M 204.34508,374.45687 c -0.32569,-0.84872 -0.80663,-1.32866 -1.06875,-1.06653 -0.26213,0.26213 -0.17998,0.95654 0.18255,1.54313 0.98605,1.59546 1.56238,1.28551 0.8862,-0.4766 z m -4.98125,-4.95113 c -0.31537,-0.82184 -1.02429,-1.21559 -1.57538,-0.875 -0.6161,0.38078 -0.47947,0.95034 0.35479,1.47895 1.82081,1.15372 1.88322,1.12284 1.22059,-0.60395 z m 2.62188,-20.92003 c -0.64761,-0.64761 -1.32381,-0.64761 -1.97142,0 -0.64762,0.64762 -0.30953,0.98572 0.98571,0.98572 1.29524,0 1.63333,-0.3381 0.98571,-0.98572 z M 194,339.55902 c 0,-0.24254 -0.45,-0.7191 -1,-1.05902 -0.55,-0.33992 -1,-0.14148 -1,0.44098 0,0.58246 0.45,1.05902 1,1.05902 0.55,0 1,-0.19844 1,-0.44098 z M 441.41683,286.5 c 9.6e-4,-10.45 0.14915,-14.58913 0.3293,-9.19806 0.18015,5.39107 0.17936,13.94107 -0.002,19 -0.18111,5.05893 -0.32851,0.64806 -0.32755,-9.80194 z M 240.232,271 c 0,-1.925 0.2058,-2.7125 0.45733,-1.75 0.25152,0.9625 0.25152,2.5375 0,3.5 -0.25153,0.9625 -0.45733,0.175 -0.45733,-1.75 z m 381.16539,-43 c 0,-7.975 0.1553,-11.2375 0.34512,-7.25 0.18981,3.9875 0.18981,10.5125 0,14.5 -0.18982,3.9875 -0.34512,0.725 -0.34512,-7.25 z m -123.2395,9 c 0,-1.375 0.22698,-1.9375 0.50439,-1.25 0.27741,0.6875 0.27741,1.8125 0,2.5 -0.27741,0.6875 -0.50439,0.125 -0.50439,-1.25 z m -18.96294,-2.5 c 0.0204,-1.65 0.2445,-2.20394 0.49804,-1.23097 0.25354,0.97297 0.23687,2.32297 -0.0371,3 -0.27393,0.67703 -0.48137,-0.11903 -0.46099,-1.76903 z m -35,-5 c 0.0204,-1.65 0.2445,-2.20394 0.49804,-1.23097 0.25354,0.97297 0.23687,2.32297 -0.0371,3 -0.27393,0.67703 -0.48137,-0.11903 -0.46099,-1.76903 z M 109.75,226.33772 c 0.6875,-0.27741 1.8125,-0.27741 2.5,0 0.6875,0.27741 0.125,0.50439 -1.25,0.50439 -1.375,0 -1.9375,-0.22698 -1.25,-0.50439 z m -61.9375,-2.02083 c 0.721875,-0.28887 1.584375,-0.25335 1.916667,0.0789 0.332291,0.33229 -0.258334,0.56864 -1.3125,0.52522 -1.164943,-0.048 -1.4019,-0.28494 -0.604167,-0.60416 z M 426.19495,221.5 c 0.0204,-1.65 0.2445,-2.20394 0.49804,-1.23097 0.25354,0.97297 0.23687,2.32297 -0.0371,3 -0.27393,0.67703 -0.48137,-0.11903 -0.46099,-1.76903 z M 355.15789,217 c 0,-1.375 0.22698,-1.9375 0.50439,-1.25 0.27741,0.6875 0.27741,1.8125 0,2.5 -0.27741,0.6875 -0.50439,0.125 -0.50439,-1.25 z m 52.92106,0.41667 c 0.048,-1.16495 0.28494,-1.4019 0.60416,-0.60417 0.28887,0.72187 0.25335,1.58437 -0.0789,1.91667 -0.33229,0.33229 -0.56864,-0.25834 -0.52522,-1.3125 z m 89,-9 c 0.048,-1.16495 0.28494,-1.4019 0.60416,-0.60417 0.28887,0.72187 0.25335,1.58437 -0.0789,1.91667 -0.33229,0.33229 -0.56864,-0.25834 -0.52522,-1.3125 z M 337.15789,206 c 0,-1.375 0.22698,-1.9375 0.50439,-1.25 0.27741,0.6875 0.27741,1.8125 0,2.5 -0.27741,0.6875 -0.50439,0.125 -0.50439,-1.25 z M 213.19495,195.5 c 0.0204,-1.65 0.2445,-2.20394 0.49804,-1.23097 0.25354,0.97297 0.23687,2.32297 -0.0371,3 -0.27393,0.67703 -0.48137,-0.11903 -0.46099,-1.76903 z m 423.67749,0.75 c -1.24387,-1.58606 -1.2085,-1.62143 0.37756,-0.37756 1.66575,1.30637 2.19548,2.12756 1.37244,2.12756 -0.20765,0 -0.99515,-0.7875 -1.75,-1.75 z M 427.15789,190 c 0,-1.375 0.22698,-1.9375 0.50439,-1.25 0.27741,0.6875 0.27741,1.8125 0,2.5 -0.27741,0.6875 -0.50439,0.125 -0.50439,-1.25 z M 472,191.62244 c 0,-0.20765 0.7875,-0.99515 1.75,-1.75 1.58606,-1.24387 1.62143,-1.2085 0.37756,0.37756 C 472.82119,191.91575 472,192.44548 472,191.62244 Z m -360.23209,-5.34717 c 1.79735,-0.22256 4.49735,-0.21797 6,0.0102 1.50265,0.22818 0.0321,0.41027 -3.26791,0.40466 -3.3,-0.006 -4.52944,-0.1923 -2.73209,-0.41486 z m 226.31104,-8.8586 c 0.048,-1.16495 0.28494,-1.4019 0.60416,-0.60417 0.28887,0.72187 0.25335,1.58437 -0.0789,1.91667 -0.33229,0.33229 -0.56864,-0.25834 -0.52522,-1.3125 z m -84.26645,-8.09978 c 0.72187,-0.28887 1.58437,-0.25335 1.91667,0.0789 0.33229,0.33229 -0.25834,0.56864 -1.3125,0.52522 -1.16495,-0.048 -1.4019,-0.28494 -0.60417,-0.60416 z m 294.4375,-0.006 c 0.9625,-0.25152 2.5375,-0.25152 3.5,0 0.9625,0.25153 0.175,0.45733 -1.75,0.45733 -1.925,0 -2.7125,-0.2058 -1.75,-0.45733 z M 363.94935,143.15035 C 349.0237,136.78072 335.23113,125.19526 328.02118,112.97147 324.24358,106.56689 320,95.683998 320,92.400703 c 0,-1.371056 -0.65718,-1.547307 -3.75,-1.005716 -26.18808,4.585856 -47.72035,1.028631 -65.5964,-10.836814 C 247.70527,78.601178 244.64575,77 243.85469,77 c -2.68527,0 -17.40076,9.813921 -26.03754,17.364717 -4.73013,4.13537 -8.91155,7.207553 -9.29203,6.827073 -0.38048,-0.38049 -0.54179,-0.20499 -0.35845,0.38999 0.18333,0.59498 -2.14167,3.91215 -5.16667,7.3715 -3.025,3.45934 -5.86516,6.9195 -6.31146,7.68925 -0.4463,0.76974 -1.30333,1.09554 -1.90451,0.72399 -0.60795,-0.37573 -0.81065,-0.21861 -0.45673,0.35405 0.34997,0.56627 -0.68583,2.85475 -2.30179,5.08551 -1.61595,2.23077 -5.25846,8.13698 -8.09446,13.12493 L 178.77469,145 H 166.88734 C 157.91339,145 155,144.6872 155,143.72368 155,141.43345 166.01164,120 167.18827,120 c 0.62978,0 0.86828,-0.27679 0.52998,-0.61508 -0.94972,-0.94973 10.38877,-17.25862 16.46883,-23.688194 2.98761,-3.159358 5.2721,-5.904209 5.07664,-6.099671 -0.74803,-0.748033 11.10134,-10.489472 12.04777,-9.904544 0.54864,0.339078 0.70941,0.15033 0.35728,-0.419441 -1.01451,-1.641501 14.41054,-13.74343 15.93534,-12.502292 0.49274,0.401072 0.55447,0.312806 0.13719,-0.196146 -0.81843,-0.998218 8.47176,-7.228511 17.06129,-11.441834 4.69535,-2.303157 5.66875,-3.346895 8.5,-9.114237 4.22639,-8.609278 19.41204,-24.117754 29.19741,-29.818113 3.85,-2.242774 7.66429,-4.217873 8.47619,-4.38911 0.81191,-0.171236 2.06561,-0.857901 2.78601,-1.525923 2.50298,-2.3209849 19.79771,-7.0715796 29.95572,-8.2283712 10.54222,-1.20054467 17.93136,-0.8185297 29.43752,1.5219045 C 350.89707,5.1536509 363,9.7805002 363,11.165357 c 0,0.523972 0.45,0.674562 1,0.334643 0.55,-0.339919 1,-0.114919 1,0.5 0,0.614919 0.45318,0.837954 1.00706,0.495635 0.55389,-0.34232 1.25117,0.01373 1.54952,0.791216 0.84857,2.211329 4.35265,1.497822 11.94342,-2.431936 14.81435,-7.6694259 32.34047,-10.8210514 49.25,-8.8563582 14.42145,1.6756059 34.06727,7.8700482 32.58199,10.2732882 -0.37364,0.604558 -0.15441,0.736441 0.52558,0.316183 1.36688,-0.844782 12.04937,5.005876 12.82351,7.023273 0.29067,0.757466 0.85747,1.173889 1.25956,0.925383 1.10048,-0.680129 15.16048,12.490684 14.49076,13.574321 -0.31903,0.516202 -0.20911,0.814899 0.24427,0.663772 0.45338,-0.151128 0.94839,0.05201 1.10002,0.451417 0.15162,0.399407 1.30444,1.836244 2.56181,3.19297 1.25737,1.356726 3.15341,4.077219 4.21343,6.04554 1.20983,2.246535 3.14119,4.017717 5.18818,4.757919 1.79349,0.648535 3.26089,1.538754 3.26089,1.978265 0,0.439512 0.3375,0.729018 0.75,0.643348 2.47288,-0.513581 18.49357,8.722487 30.75,17.727641 14.27867,10.490958 36.5901,33.855293 34.91612,36.563853 -0.43105,0.69744 -0.29416,0.90693 0.33752,0.51653 1.76554,-1.09116 18.08688,25.17389 16.5798,26.68097 -0.36673,0.36672 -0.11522,0.66677 0.55891,0.66677 0.67413,0 0.94757,0.45 0.60765,1 -0.33992,0.55 -0.18378,1 0.34698,1 0.53076,0 1.655,2.025 2.49832,4.5 l 1.5333,4.5 h -12.4249 -12.42491 l -3.05785,-6.05756 c -1.68181,-3.33166 -5.13245,-9.29416 -7.66808,-13.25 -2.53563,-3.95584 -4.49812,-7.19244 -4.36108,-7.19244 0.46566,0 -13.41376,-14.85183 -19.69178,-21.071427 -3.4375,-3.405507 -6.25,-5.941657 -6.25,-5.635888 0,0.305769 -1.0125,-0.374766 -2.25,-1.512299 -2.93598,-2.698809 -18.21896,-12.585905 -22.90877,-14.820485 l -3.65877,-1.743315 -4.44422,3.641707 C 494.29392,79.361232 491.99392,81 491.62714,81 c -0.36679,0 -2.34544,1.041867 -4.39701,2.315259 -12.27064,7.616284 -33.54317,11.796881 -49.37887,9.704213 -4.5932,-0.606985 -9.74873,-1.34756 -11.45676,-1.645722 -2.90554,-0.507209 -3.14155,-0.319944 -3.66545,2.908497 -0.84809,5.226181 -6.53405,18.215303 -9.26242,21.159263 -1.32839,1.43335 -2.44348,2.93289 -2.47798,3.3323 -0.0871,1.00818 -3.29834,4.4648 -5.58661,6.01346 -1.04612,0.708 -1.33954,1.01894 -0.65204,0.69098 2.54864,-1.21577 1.08591,0.30443 -5,5.1965 -8.12657,6.53243 -15.3474,10.67786 -16.9701,9.74242 -0.70394,-0.4058 -0.93401,-0.35729 -0.51127,0.10781 0.70488,0.77548 -8.45925,5.37754 -10.76863,5.40781 -0.55,0.007 -3.94779,-1.24489 -7.55065,-2.78244 z m 210.27179,-3.01646 c -0.39448,-1.028 -0.72053,-1.13572 -0.99007,-0.3271 -0.22104,0.66312 -0.88298,0.90834 -1.47099,0.54493 -0.588,-0.3634 -0.79436,-0.21621 -0.45858,0.3271 1.01279,1.63873 3.57414,1.16067 2.91964,-0.54493 z M 349.98571,129.58571 c -0.64761,-0.64761 -1.32381,-0.64761 -1.97142,0 -0.64762,0.64762 -0.30953,0.98572 0.98571,0.98572 1.29524,0 1.63333,-0.3381 0.98571,-0.98572 z m 29.34152,-12.29228 c 2.28858,-1.44472 4.7262,-2.62676 5.41692,-2.62676 0.69072,0 1.03528,-0.22057 0.7657,-0.49016 -0.26959,-0.26958 1.55967,-2.68158 4.06502,-5.36 5.24611,-5.60852 10.11931,-15.306133 11.02985,-21.949302 l 0.6287,-4.586875 -5.36671,-3.09876 C 383.50003,72.041007 367.5,55.358095 367.5,49.604176 c 0,-3.015588 -3.83525,-2.86834 -8.23114,0.316021 -5.41107,3.919761 -10.66643,10.549059 -13.99172,17.649669 C 342.92388,72.594883 342.5,74.797355 342.5,82 c 0,7.50978 0.37738,9.296791 3.2394,15.339616 3.8306,8.087874 10.46759,15.222014 18.7606,20.165854 6.70577,3.99763 8.19236,3.97637 14.82723,-0.21204 z M 525.91667,82.717032 C 525.6875,82.5614 524.6,81.7739 523.5,80.967032 c -1.85001,-1.357009 -1.89707,-1.335787 -0.62756,0.282968 0.75485,0.9625 1.84235,1.75 2.41667,1.75 0.57432,0 0.85672,-0.127335 0.62756,-0.282968 z M 263.36756,81.214286 c 0.26708,-0.432143 -0.34832,-0.785715 -1.36756,-0.785715 -1.01924,0 -1.63464,0.353572 -1.36756,0.785715 C 260.89951,81.646429 261.51492,82 262,82 c 0.48508,0 1.10049,-0.353571 1.36756,-0.785714 z M 314.2111,68.231592 c 4.24111,-0.903497 7.54769,-1.806131 7.34797,-2.005854 -0.19972,-0.199722 0.76118,-3.130068 2.13533,-6.511878 3.45348,-8.499066 10.44431,-18.183776 17.83951,-24.71386 3.42575,-3.025 6.06927,-5.774776 5.87449,-6.110612 -0.19478,-0.335837 -2.95385,-1.307783 -6.13127,-2.15988 -22.65292,-6.074888 -48.64345,0.390917 -66.89913,16.642856 -6.62791,5.90043 -12.7169,14.984489 -11.85798,17.69071 0.33102,1.042965 0.91194,1.831804 1.29092,1.752977 0.37898,-0.07883 2.86831,0.832221 5.53185,2.02455 2.66353,1.19233 5.92603,2.439749 7.25,2.772043 1.32396,0.332295 2.40721,0.906785 2.40721,1.276645 0,0.36986 3.25947,0.805545 7.24326,0.968187 3.9838,0.162643 7.44625,0.498698 7.69434,0.746789 0.72083,0.72083 11.88609,-0.585876 20.2735,-2.372673 z M 463.5,68.375282 c 5.47291,-1.319065 14.70831,-5.374665 16.88381,-7.414293 2.31257,-2.168129 -10.29682,-17.452021 -19.92347,-24.149324 -4.69445,-3.265949 -15.00246,-7.938532 -21.96034,-9.954539 -1.65,-0.478078 -6.89194,-1.344202 -11.64874,-1.92472 -11.12097,-1.357194 -22.76594,0.150146 -32.53251,4.211049 -9.73985,4.049794 -10.30567,4.871744 -7.25552,10.539729 3.12881,5.814161 15.41382,17.341733 22.66891,21.271258 16.62788,9.006039 36.06198,11.688263 53.76786,7.42084 z m -139.47994,0.100552 c 0.69572,-0.838291 0.97582,-1.813291 0.62244,-2.166667 C 324.28913,65.955792 324,66.206168 324,66.865558 c 0,0.65939 -1.0125,1.605866 -2.25,2.10328 -1.52262,0.612016 -1.72384,0.924881 -0.62244,0.967776 0.89515,0.03486 2.19678,-0.622489 2.8925,-1.46078 z M 382,59 c 0,-0.55 -0.47656,-1 -1.05902,-1 -0.58246,0 -0.7809,0.45 -0.44098,1 0.33992,0.55 0.81648,1 1.05902,1 C 381.80156,60 382,59.55 382,59 Z m -33.61844,-1.551938 c 0.34149,-0.889925 0.17385,-1.291322 -0.39301,-0.940983 C 347.44485,56.843104 347,57.541476 347,58.059017 c 0,1.438432 0.71677,1.121462 1.38156,-0.610955 z M 386.41429,45.014286 C 385.76667,44.366667 385.42857,44.704762 385.42857,46 c 0,1.295238 0.3381,1.633333 0.98572,0.985714 0.64761,-0.647619 0.64761,-1.323809 0,-1.971428 z M 263,31.622445 c 0,-0.207656 -0.7875,-0.995156 -1.75,-1.75 C 259.66394,28.628574 259.62857,28.663944 260.87244,30.25 262.17881,31.915748 263,32.445479 263,31.622445 Z"
         id="path59491" />
      <path
         style="fill:#8c8c8c;fill-opacity:1"
         d="m 430.8125,417.31689 c 0.72187,-0.28887 1.58438,-0.25335 1.91667,0.0789 0.33229,0.33229 -0.25834,0.56864 -1.3125,0.52522 -1.16495,-0.048 -1.4019,-0.28494 -0.60417,-0.60416 z M 203.45888,374.93347 c -0.36253,-0.58659 -0.44468,-1.281 -0.18255,-1.54313 0.26212,-0.26213 0.74306,0.21781 1.06875,1.06653 0.67618,1.76211 0.0999,2.07206 -0.8862,0.4766 z m -5.31564,-4.82378 c -0.83426,-0.52861 -0.97089,-1.09817 -0.35479,-1.47895 0.55109,-0.34059 1.26001,0.0532 1.57538,0.875 0.66263,1.72679 0.60022,1.75767 -1.22059,0.60395 z m 1.87105,-21.52398 c 0.64761,-0.64761 1.32381,-0.64761 1.97142,0 0.64762,0.64762 0.30953,0.98572 -0.98571,0.98572 -1.29524,0 -1.63333,-0.3381 -0.98571,-0.98572 z M 192,338.94098 c 0,-0.58246 0.45,-0.7809 1,-0.44098 0.55,0.33992 1,0.81648 1,1.05902 0,0.24254 -0.45,0.44098 -1,0.44098 -0.55,0 -1,-0.47656 -1,-1.05902 z M 575.34281,298.5 c 0.004,-4.4 0.17944,-6.07561 0.39069,-3.72357 0.21124,2.35204 0.20827,5.95204 -0.007,8 -0.21487,2.04796 -0.38771,0.12357 -0.38408,-4.27643 z m 13,-23 c 0.004,-4.4 0.17944,-6.07561 0.39069,-3.72357 0.21124,2.35204 0.20827,5.95204 -0.007,8 -0.21487,2.04796 -0.38771,0.12357 -0.38408,-4.27643 z M 253.26903,244.30701 c 0.97297,-0.25354 2.32297,-0.23687 3,0.0371 0.67703,0.27393 -0.11903,0.48137 -1.76903,0.46099 -1.65,-0.0204 -2.20394,-0.2445 -1.23097,-0.49804 z m 295.48097,0.0307 c 0.6875,-0.27741 1.8125,-0.27741 2.5,0 0.6875,0.27741 0.125,0.50439 -1.25,0.50439 -1.375,0 -1.9375,-0.22698 -1.25,-0.50439 z m 155,0 c 0.6875,-0.27741 1.8125,-0.27741 2.5,0 0.6875,0.27741 0.125,0.50439 -1.25,0.50439 -1.375,0 -1.9375,-0.22698 -1.25,-0.50439 z M 318.45018,206.5 c 3.4e-4,-19.25 0.13469,-26.98347 0.29856,-17.1855 0.16386,9.79798 0.16358,25.54798 -6.2e-4,35 -0.16421,9.45203 -0.29828,1.4355 -0.29794,-17.8145 z m 204.95481,27.25 -1.90499,-2.25 2.25,1.90499 c 1.2375,1.04774 2.25,2.06024 2.25,2.25 0,0.80025 -0.80479,0.20945 -2.59501,-1.90499 z m -44.21004,-4.25 c 0.0204,-1.65 0.2445,-2.20394 0.49804,-1.23097 0.25354,0.97297 0.23687,2.32297 -0.0371,3 -0.27393,0.67703 -0.48137,-0.11903 -0.46099,-1.76903 z M 115.75,226.2766 c 1.7875,-0.22182 4.7125,-0.22182 6.5,0 1.7875,0.22183 0.325,0.40333 -3.25,0.40333 -3.575,0 -5.0375,-0.1815 -3.25,-0.40333 z m 310.32895,-0.85993 c 0.048,-1.16495 0.28494,-1.4019 0.60416,-0.60417 0.28887,0.72187 0.25335,1.58437 -0.0789,1.91667 -0.33229,0.33229 -0.56864,-0.25834 -0.52522,-1.3125 z m 18.116,-0.91667 c 0.0204,-1.65 0.2445,-2.20394 0.49804,-1.23097 0.25354,0.97297 0.23687,2.32297 -0.0371,3 -0.27393,0.67703 -0.48137,-0.11903 -0.46099,-1.76903 z M 548.75,226.33772 c 0.6875,-0.27741 1.8125,-0.27741 2.5,0 0.6875,0.27741 0.125,0.50439 -1.25,0.50439 -1.375,0 -1.9375,-0.22698 -1.25,-0.50439 z M 43.269032,224.30701 c 0.972967,-0.25354 2.322967,-0.23687 3,0.0371 0.677032,0.27393 -0.119032,0.48137 -1.769032,0.46099 -1.65,-0.0204 -2.203936,-0.2445 -1.230968,-0.49804 z M 408.15789,221 c 0,-1.375 0.22698,-1.9375 0.50439,-1.25 0.27741,0.6875 0.27741,1.8125 0,2.5 -0.27741,0.6875 -0.50439,0.125 -0.50439,-1.25 z m -70.96294,-10.5 c 0.0204,-1.65 0.2445,-2.20394 0.49804,-1.23097 0.25354,0.97297 0.23687,2.32297 -0.0371,3 -0.27393,0.67703 -0.48137,-0.11903 -0.46099,-1.76903 z M 174.75,207.33772 c 0.6875,-0.27741 1.8125,-0.27741 2.5,0 0.6875,0.27741 0.125,0.50439 -1.25,0.50439 -1.375,0 -1.9375,-0.22698 -1.25,-0.50439 z m -58.45429,-9.08185 c 4.28763,-0.1879 11.03763,-0.18676 15,0.003 3.96236,0.1893 0.45429,0.34304 -7.79571,0.34164 -8.25,-0.001 -11.49193,-0.15629 -7.20429,-0.34419 z M 378,196.62244 c 0,-0.20765 0.7875,-0.99515 1.75,-1.75 1.58606,-1.24387 1.62143,-1.2085 0.37756,0.37756 C 378.82119,196.91575 378,197.44548 378,196.62244 Z m 29.07895,-1.20577 c 0.048,-1.16495 0.28494,-1.4019 0.60416,-0.60417 0.28887,0.72187 0.25335,1.58437 -0.0789,1.91667 -0.33229,0.33229 -0.56864,-0.25834 -0.52522,-1.3125 z m 142.73355,-8.09978 c 0.72187,-0.28887 1.58438,-0.25335 1.91667,0.0789 0.33229,0.33229 -0.25834,0.56864 -1.3125,0.52522 -1.16495,-0.048 -1.4019,-0.28494 -0.60417,-0.60416 z M 122.25,186.28375 c 1.5125,-0.22913 3.9875,-0.22913 5.5,0 1.5125,0.22912 0.275,0.41659 -2.75,0.41659 -3.025,0 -4.2625,-0.18747 -2.75,-0.41659 z M 139.32814,178.5 c 0.004,-3.85 0.18518,-5.30246 0.40166,-3.2277 0.21647,2.07477 0.21284,5.22477 -0.008,7 -0.22091,1.77524 -0.39803,0.0777 -0.39359,-3.7723 z M 522,181.62244 c 0,-0.20765 0.7875,-0.99515 1.75,-1.75 1.58606,-1.24387 1.62143,-1.2085 0.37756,0.37756 C 522.82119,181.91575 522,182.44548 522,181.62244 Z m 49.3015,-40.94362 c -0.33578,-0.54331 -0.12942,-0.6905 0.45858,-0.3271 0.58801,0.36341 1.24995,0.11819 1.47099,-0.54493 0.26954,-0.80862 0.59559,-0.7009 0.99007,0.3271 0.6545,1.7056 -1.90685,2.18366 -2.91964,0.54493 z M 348.01429,129.58571 c 0.64761,-0.64761 1.32381,-0.64761 1.97142,0 0.64762,0.64762 0.30953,0.98572 -0.98571,0.98572 -1.29524,0 -1.63333,-0.3381 -0.98571,-0.98572 z M 522.87244,81.25 c -1.26951,-1.618755 -1.22245,-1.639977 0.62756,-0.282968 1.1,0.806868 2.1875,1.594368 2.41667,1.75 C 526.14583,82.872665 525.86343,83 525.28911,83 c -0.57432,0 -1.66182,-0.7875 -2.41667,-1.75 z m -262.24,-0.03571 c -0.26708,-0.432143 0.34832,-0.785715 1.36756,-0.785715 1.01924,0 1.63464,0.353572 1.36756,0.785715 C 263.10049,81.646429 262.48508,82 262,82 c -0.48508,0 -1.10049,-0.353571 -1.36756,-0.785714 z M 321.75,68.968838 c 1.2375,-0.497414 2.25,-1.44389 2.25,-2.10328 0,-0.65939 0.28913,-0.909766 0.6425,-0.556391 0.97488,0.974884 -1.66522,3.699486 -3.51494,3.627447 -1.1014,-0.0429 -0.90018,-0.35576 0.62244,-0.967776 z M 380.5,59 c -0.33992,-0.55 -0.14148,-1 0.44098,-1 0.58246,0 1.05902,0.45 1.05902,1 0,0.55 -0.19844,1 -0.44098,1 -0.24254,0 -0.7191,-0.45 -1.05902,-1 z M 347,58.059017 c 0,-0.517541 0.44485,-1.215913 0.98855,-1.551938 0.56686,-0.350339 0.7345,0.05106 0.39301,0.940983 C 347.71677,59.180479 347,59.497449 347,58.059017 Z m 19.56429,-9.765889 c -0.54268,-1.425198 -0.42782,-1.540062 0.5598,-0.559795 0.68342,0.678334 0.99067,1.485241 0.68278,1.793128 -0.30789,0.307888 -0.86705,-0.247112 -1.24258,-1.233333 z M 385.42857,46 c 0,-1.295238 0.3381,-1.633333 0.98572,-0.985714 0.64761,0.647619 0.64761,1.323809 0,1.971428 C 385.76667,47.633333 385.42857,47.295238 385.42857,46 Z M 260.87244,30.25 c -1.24387,-1.586056 -1.2085,-1.621426 0.37756,-0.377555 0.9625,0.754844 1.75,1.542344 1.75,1.75 0,0.823034 -0.82119,0.293303 -2.12756,-1.372445 z"
         id="path59489" />
      <path
         style="fill:#767676;fill-opacity:1"
         d="m 354.5,301 -7,-0.64683 6.69098,-0.17658 c 3.68004,-0.0971 6.9691,0.27341 7.30902,0.82341 0.33992,0.55 0.47898,0.92054 0.30902,0.82341 C 361.63906,301.72629 358.35,301.35575 354.5,301 Z m -243.7723,-0.72173 c 1.77523,-0.22091 4.92523,-0.22454 7,-0.008 2.07476,0.21648 0.6223,0.39722 -3.2277,0.40166 -3.85,0.004 -5.54754,-0.17268 -3.7723,-0.39359 z m 362,0 c 1.77523,-0.22091 4.92523,-0.22454 7,-0.008 2.07476,0.21648 0.6223,0.39722 -3.2277,0.40166 -3.85,0.004 -5.54754,-0.17268 -3.7723,-0.39359 z M 110.64313,293.2316 c -0.26119,-0.42263 1.28725,-0.60036 3.44099,-0.39497 2.15373,0.20539 3.91588,0.55117 3.91588,0.76841 0,0.74484 -6.88162,0.39553 -7.35687,-0.37344 z m 239.98603,-0.0226 c -0.26888,-0.43506 1.05457,-0.61082 2.94099,-0.39059 1.88642,0.22022 3.42985,0.57618 3.42985,0.79101 0,0.75258 -5.88692,0.38257 -6.37084,-0.40042 z m 124.1325,0.0838 c 1.24391,-0.23919 3.04391,-0.23011 4,0.0202 0.95609,0.25029 -0.0617,0.446 -2.26166,0.4349 -2.2,-0.0111 -2.98225,-0.21589 -1.73834,-0.45508 z m 151.31729,-5.87607 c 0.048,-1.16495 0.28494,-1.4019 0.60416,-0.60417 0.28887,0.72187 0.25335,1.58438 -0.0789,1.91667 -0.33229,0.33229 -0.56864,-0.25834 -0.52522,-1.3125 z m -326.80992,-0.10966 c 0.97297,-0.25354 2.32297,-0.23687 3,0.0371 0.67703,0.27393 -0.11903,0.48137 -1.76903,0.46099 -1.65,-0.0204 -2.20394,-0.2445 -1.23097,-0.49804 z M 197.15789,280 c 0,-1.375 0.22698,-1.9375 0.50439,-1.25 0.27741,0.6875 0.27741,1.8125 0,2.5 -0.27741,0.6875 -0.50439,0.125 -0.50439,-1.25 z M 22.25,242.26496 c 2.6125,-0.206 6.8875,-0.206 9.5,0 2.6125,0.206 0.475,0.37454 -4.75,0.37454 -5.225,0 -7.3625,-0.16854 -4.75,-0.37454 z m 81.05822,-0.0126 c 7.04451,-0.17214 18.29451,-0.17164 25,10e-4 6.70548,0.17275 0.94178,0.31359 -12.80822,0.31298 -13.75,-6.1e-4 -19.236303,-0.14195 -12.19178,-0.31409 z m 55.94178,0.0126 c 2.6125,-0.206 6.8875,-0.206 9.5,0 2.6125,0.206 0.475,0.37454 -4.75,0.37454 -5.225,0 -7.3625,-0.16854 -4.75,-0.37454 z m 44.53352,-0.003 c 2.90594,-0.20265 7.40594,-0.20052 10,0.005 2.59406,0.20525 0.21648,0.37104 -5.28352,0.36844 -5.5,-0.003 -7.62242,-0.17053 -4.71648,-0.37317 z M 302.5,242.36593 c 7.06971,-0.73995 16.27885,-0.80732 15.84865,-0.11593 -0.25668,0.4125 -4.60263,0.67798 -9.65767,0.58996 -5.05504,-0.088 -7.84098,-0.30133 -6.19098,-0.47403 z m 39.25,-0.0981 c 2.3375,-0.21053 6.1625,-0.21053 8.5,0 2.3375,0.21054 0.425,0.3828 -4.25,0.3828 -4.675,0 -6.5875,-0.17226 -4.25,-0.3828 z m 53,0 c 2.3375,-0.21053 6.1625,-0.21053 8.5,0 2.3375,0.21054 0.425,0.3828 -4.25,0.3828 -4.675,0 -6.5875,-0.17226 -4.25,-0.3828 z m 36,0 c 2.3375,-0.21053 6.1625,-0.21053 8.5,0 2.3375,0.21054 0.425,0.3828 -4.25,0.3828 -4.675,0 -6.5875,-0.17226 -4.25,-0.3828 z m 53.53017,-0.004 c 2.6291,-0.20668 6.6791,-0.20418 9,0.006 2.32091,0.20972 0.16983,0.37882 -4.78017,0.37577 -4.95,-0.003 -6.84892,-0.17464 -4.21983,-0.38131 z m 124,0 c 2.6291,-0.20668 6.6791,-0.20418 9,0.006 2.32091,0.20972 0.16983,0.37882 -4.78017,0.37577 -4.95,-0.003 -6.84892,-0.17464 -4.21983,-0.38131 z M 663.30987,237.5 c 0.006,-3.3 0.1923,-4.52944 0.41486,-2.73209 0.22256,1.79735 0.21797,4.49735 -0.0102,6 -0.22818,1.50265 -0.41027,0.0321 -0.40466,-3.26791 z M 603.232,238 c 0,-1.925 0.2058,-2.7125 0.45733,-1.75 0.25152,0.9625 0.25152,2.5375 0,3.5 -0.25153,0.9625 -0.45733,0.175 -0.45733,-1.75 z m -177,-8 c 0,-1.925 0.2058,-2.7125 0.45733,-1.75 0.25152,0.9625 0.25152,2.5375 0,3.5 -0.25153,0.9625 -0.45733,0.175 -0.45733,-1.75 z m -298.5043,-3.72173 c 1.77523,-0.22091 4.92523,-0.22454 7,-0.008 2.07476,0.21648 0.6223,0.39722 -3.2277,0.40166 -3.85,0.004 -5.54754,-0.17268 -3.7723,-0.39359 z M 408.15789,225 c 0,-1.375 0.22698,-1.9375 0.50439,-1.25 0.27741,0.6875 0.27741,1.8125 0,2.5 -0.27741,0.6875 -0.50439,0.125 -0.50439,-1.25 z m 71.07411,-1 c 0,-1.925 0.2058,-2.7125 0.45733,-1.75 0.25152,0.9625 0.25152,2.5375 0,3.5 -0.25153,0.9625 -0.45733,0.175 -0.45733,-1.75 z m -440.962968,0.30701 c 0.972967,-0.25354 2.322967,-0.23687 3,0.0371 0.677032,0.27393 -0.119032,0.48137 -1.769032,0.46099 -1.65,-0.0204 -2.203936,-0.2445 -1.230968,-0.49804 z m 226.809918,-0.89034 c 0.048,-1.16495 0.28494,-1.4019 0.60416,-0.60417 0.28887,0.72187 0.25335,1.58437 -0.0789,1.91667 -0.33229,0.33229 -0.56864,-0.25834 -0.52522,-1.3125 z M 377,223.62244 c 0,-0.20765 0.7875,-0.99515 1.75,-1.75 1.58606,-1.24387 1.62143,-1.2085 0.37756,0.37756 C 377.82119,223.91575 377,224.44548 377,223.62244 Z m -196.23834,-2.3297 c 1.24391,-0.23919 3.04391,-0.23011 4,0.0202 0.95609,0.25029 -0.0617,0.446 -2.26166,0.4349 -2.2,-0.0111 -2.98225,-0.21589 -1.73834,-0.45508 z M 444.19495,219.5 c 0.0204,-1.65 0.2445,-2.20394 0.49804,-1.23097 0.25354,0.97297 0.23687,2.32297 -0.0371,3 -0.27393,0.67703 -0.48137,-0.11903 -0.46099,-1.76903 z m -106.94277,-3 c 0.0111,-2.2 0.21589,-2.98225 0.45508,-1.73834 0.23919,1.24391 0.23011,3.04391 -0.0202,4 -0.25029,0.95609 -0.446,-0.0617 -0.4349,-2.26166 z m 111.15281,-1.75 -1.90499,-2.25 2.25,1.90499 c 2.11444,1.79022 2.70524,2.59501 1.90499,2.59501 -0.18976,0 -1.20226,-1.0125 -2.25,-2.25 z m 48.7529,-0.75 c 0,-1.375 0.22698,-1.9375 0.50439,-1.25 0.27741,0.6875 0.27741,1.8125 0,2.5 -0.27741,0.6875 -0.50439,0.125 -0.50439,-1.25 z M 475,214.62244 c 0,-0.20765 0.7875,-0.99515 1.75,-1.75 1.58606,-1.24387 1.62143,-1.2085 0.37756,0.37756 C 475.82119,214.91575 475,215.44548 475,214.62244 Z m -296.25,-7.28472 c 0.6875,-0.27741 1.8125,-0.27741 2.5,0 0.6875,0.27741 0.125,0.50439 -1.25,0.50439 -1.375,0 -1.9375,-0.22698 -1.25,-0.50439 z M 427.15789,196 c 0,-1.375 0.22698,-1.9375 0.50439,-1.25 0.27741,0.6875 0.27741,1.8125 0,2.5 -0.27741,0.6875 -0.50439,0.125 -0.50439,-1.25 z M 228.232,193 c 0,-1.925 0.2058,-2.7125 0.45733,-1.75 0.25152,0.9625 0.25152,2.5375 0,3.5 -0.25153,0.9625 -0.45733,0.175 -0.45733,-1.75 z m 134.69231,0.25 -2.42431,-2.75 2.75,2.42431 c 2.57029,2.26589 3.20859,3.07569 2.42431,3.07569 -0.17912,0 -1.41662,-1.2375 -2.75,-2.75 z M 382.5,192 c 0.99549,-1.1 2.03498,-2 2.30998,-2 0.275,0 -0.31449,0.9 -1.30998,2 -0.99549,1.1 -2.03498,2 -2.30998,2 -0.275,0 0.31449,-0.9 1.30998,-2 z m -24.62756,-3.75 c -1.24387,-1.58606 -1.2085,-1.62143 0.37756,-0.37756 0.9625,0.75485 1.75,1.54235 1.75,1.75 0,0.82304 -0.82119,0.29331 -2.12756,-1.37244 z M 39.26375,186.28242 c 1.520062,-0.22986 3.770062,-0.22371 5,0.0136 1.229937,0.23736 -0.01375,0.42542 -2.76375,0.41792 -2.75,-0.008 -3.756313,-0.20172 -2.23625,-0.43157 z m 93,0 c 1.52006,-0.22986 3.77006,-0.22371 5,0.0136 1.22994,0.23736 -0.0137,0.42542 -2.76375,0.41792 -2.75,-0.008 -3.75631,-0.20172 -2.23625,-0.43157 z m 43.98625,0.001 c 1.5125,-0.22913 3.9875,-0.22913 5.5,0 1.5125,0.22912 0.275,0.41659 -2.75,0.41659 -3.025,0 -4.2625,-0.18747 -2.75,-0.41659 z M 338.19495,183.5 c 0.0204,-1.65 0.2445,-2.20394 0.49804,-1.23097 0.25354,0.97297 0.23687,2.32297 -0.0371,3 -0.27393,0.67703 -0.48137,-0.11903 -0.46099,-1.76903 z M 603.15789,178 c 0,-1.375 0.22698,-1.9375 0.50439,-1.25 0.27741,0.6875 0.27741,1.8125 0,2.5 -0.27741,0.6875 -0.50439,0.125 -0.50439,-1.25 z m 60.09429,-2.5 c 0.0111,-2.2 0.21589,-2.98225 0.45508,-1.73834 0.23919,1.24391 0.23011,3.04391 -0.0202,4 -0.25029,0.95609 -0.446,-0.0617 -0.4349,-2.26166 z M 603.15789,173 c 0,-1.375 0.22698,-1.9375 0.50439,-1.25 0.27741,0.6875 0.27741,1.8125 0,2.5 -0.27741,0.6875 -0.50439,0.125 -0.50439,-1.25 z m -108.07894,-1.58333 c 0.048,-1.16495 0.28494,-1.4019 0.60416,-0.60417 0.28887,0.72187 0.25335,1.58437 -0.0789,1.91667 -0.33229,0.33229 -0.56864,-0.25834 -0.52522,-1.3125 z"
         id="path59487" />
      <path
         style="fill:#606060;fill-opacity:1"
         d="m 390.41508,288 c 0,-10.175 0.1485,-14.3375 0.32999,-9.25 0.18149,5.0875 0.18149,13.4125 0,18.5 -0.18149,5.0875 -0.32999,0.925 -0.32999,-9.25 z m 11.33492,9.33772 c 0.6875,-0.27741 1.8125,-0.27741 2.5,0 0.6875,0.27741 0.125,0.50439 -1.25,0.50439 -1.375,0 -1.9375,-0.22698 -1.25,-0.50439 z m -99.9375,-3.02083 c 0.72187,-0.28887 1.58438,-0.25335 1.91667,0.0789 0.33229,0.33229 -0.25834,0.56864 -1.3125,0.52522 -1.16495,-0.048 -1.4019,-0.28494 -0.60417,-0.60416 z M 179.39172,281 c 0,-7.425 0.15742,-10.4625 0.34983,-6.75 0.19241,3.7125 0.19241,9.7875 0,13.5 -0.19241,3.7125 -0.34983,0.675 -0.34983,-6.75 z m -5.94416,-49.5 c 0.0522,-9.9596 0.0625,-10.00039 2.55244,-10.0965 2.10444,-0.0812 2.14942,-0.0317 0.28429,0.31312 -2.07814,0.38417 -2.23663,1.01109 -2.55244,10.09649 l -0.33673,9.68689 0.0524,-10 z m 180.71033,8.5 c 0,-1.375 0.22698,-1.9375 0.50439,-1.25 0.27741,0.6875 0.27741,1.8125 0,2.5 -0.27741,0.6875 -0.50439,0.125 -0.50439,-1.25 z m 36.09429,-1.5 c 0.0111,-2.2 0.21589,-2.98225 0.45508,-1.73834 0.23919,1.24391 0.23011,3.04391 -0.0202,4 -0.25029,0.95609 -0.446,-0.0617 -0.4349,-2.26166 z m 36.03383,-1 c 0.008,-2.75 0.20172,-3.75631 0.43157,-2.23625 0.22986,1.52006 0.22371,3.77006 -0.0136,5 -0.23736,1.22994 -0.42542,-0.0137 -0.41792,-2.76375 z M 603.29966,230 c 0,-3.025 0.18747,-4.2625 0.41659,-2.75 0.22913,1.5125 0.22913,3.9875 0,5.5 -0.22912,1.5125 -0.41659,0.275 -0.41659,-2.75 z m 60.06084,-7 c 0,-5.225 0.16854,-7.3625 0.37454,-4.75 0.206,2.6125 0.206,6.8875 0,9.5 -0.206,2.6125 -0.37454,0.475 -0.37454,-4.75 z m -255.20261,6 c 0,-1.375 0.22698,-1.9375 0.50439,-1.25 0.27741,0.6875 0.27741,1.8125 0,2.5 -0.27741,0.6875 -0.50439,0.125 -0.50439,-1.25 z m 47.76642,-6.75 -2.42431,-2.75 2.75,2.42431 c 2.57029,2.26589 3.20859,3.07569 2.42431,3.07569 -0.17912,0 -1.41662,-1.2375 -2.75,-2.75 z m -118.84536,-0.83333 c 0.048,-1.16495 0.28494,-1.4019 0.60416,-0.60417 0.28887,0.72187 0.25335,1.58437 -0.0789,1.91667 -0.33229,0.33229 -0.56864,-0.25834 -0.52522,-1.3125 z M 479.19495,218.5 c 0.0204,-1.65 0.2445,-2.20394 0.49804,-1.23097 0.25354,0.97297 0.23687,2.32297 -0.0371,3 -0.27393,0.67703 -0.48137,-0.11903 -0.46099,-1.76903 z m 17.96294,-0.5 c 0,-1.375 0.22698,-1.9375 0.50439,-1.25 0.27741,0.6875 0.27741,1.8125 0,2.5 -0.27741,0.6875 -0.50439,0.125 -0.50439,-1.25 z M 68,217.62244 c 0,-0.20765 0.7875,-0.99515 1.75,-1.75 1.586056,-1.24387 1.621426,-1.2085 0.377555,0.37756 C 68.821186,217.91575 68,218.44548 68,217.62244 Z m 376.07895,-2.20577 c 0.048,-1.16495 0.28494,-1.4019 0.60416,-0.60417 0.28887,0.72187 0.25335,1.58437 -0.0789,1.91667 -0.33229,0.33229 -0.56864,-0.25834 -0.52522,-1.3125 z M 138.34281,206.5 c 0.004,-4.4 0.17944,-6.07561 0.39069,-3.72357 0.21124,2.35204 0.20827,5.95204 -0.007,8 -0.21487,2.04796 -0.38771,0.12357 -0.38408,-4.27643 z m 44.46969,0.81689 c 0.72187,-0.28887 1.58437,-0.25335 1.91667,0.0789 0.33229,0.33229 -0.25834,0.56864 -1.3125,0.52522 -1.16495,-0.048 -1.4019,-0.28494 -0.60417,-0.60416 z M 173.36523,196.5 c 0.003,-5.5 0.17053,-7.62242 0.37317,-4.71648 0.20265,2.90594 0.20052,7.40594 -0.005,10 -0.20525,2.59406 -0.37104,0.21648 -0.36844,-5.28352 z m -98.079216,2 c 0.0075,-2.75 0.201713,-3.75631 0.431567,-2.23625 0.229855,1.52006 0.223712,3.77006 -0.01365,5 -0.237362,1.22994 -0.425424,-0.0137 -0.417917,-2.76375 z m 351.908936,2 c 0.0204,-1.65 0.2445,-2.20394 0.49804,-1.23097 0.25354,0.97297 0.23687,2.32297 -0.0371,3 -0.27393,0.67703 -0.48137,-0.11903 -0.46099,-1.76903 z m 30.72936,-1.25 -2.42431,-2.75 2.75,2.42431 c 2.57029,2.26589 3.20859,3.07569 2.42431,3.07569 -0.17912,0 -1.41662,-1.2375 -2.75,-2.75 z M 464,200.62244 c 0,-0.20765 0.7875,-0.99515 1.75,-1.75 1.58606,-1.24387 1.62143,-1.2085 0.37756,0.37756 C 464.82119,200.91575 464,201.44548 464,200.62244 Z M 496.15789,194 c 0,-1.375 0.22698,-1.9375 0.50439,-1.25 0.27741,0.6875 0.27741,1.8125 0,2.5 -0.27741,0.6875 -0.50439,0.125 -0.50439,-1.25 z m 167.19152,-7 c 0,-4.675 0.17226,-6.5875 0.3828,-4.25 0.21053,2.3375 0.21053,6.1625 0,8.5 -0.21054,2.3375 -0.3828,0.425 -0.3828,-4.25 z m -60.09723,-0.5 c 0.0111,-2.2 0.21589,-2.98225 0.45508,-1.73834 0.23919,1.24391 0.23011,3.04391 -0.0202,4 -0.25029,0.95609 -0.446,-0.0617 -0.4349,-2.26166 z m -265.17323,0.91667 c 0.048,-1.16495 0.28494,-1.4019 0.60416,-0.60417 0.28887,0.72187 0.25335,1.58437 -0.0789,1.91667 -0.33229,0.33229 -0.56864,-0.25834 -0.52522,-1.3125 z M 351.40499,181.75 349.5,179.5 l 2.25,1.90499 c 1.2375,1.04774 2.25,2.06024 2.25,2.25 0,0.80025 -0.80479,0.20945 -2.59501,-1.90499 z M 481,182.62244 c 0,-0.20765 0.7875,-0.99515 1.75,-1.75 1.58606,-1.24387 1.62143,-1.2085 0.37756,0.37756 C 481.82119,182.91575 481,183.44548 481,182.62244 Z M 344.92431,175.25 342.5,172.5 l 2.75,2.42431 c 2.57029,2.26589 3.20859,3.07569 2.42431,3.07569 -0.17912,0 -1.41662,-1.2375 -2.75,-2.75 z M 487,176.68709 c 0,-0.1721 1.4625,-1.6346 3.25,-3.25 l 3.25,-2.93709 -2.93709,3.25 C 487.82513,176.77946 487,177.45965 487,176.68709 Z M 428.19495,173.5 c 0.0204,-1.65 0.2445,-2.20394 0.49804,-1.23097 0.25354,0.97297 0.23687,2.32297 -0.0371,3 -0.27393,0.67703 -0.48137,-0.11903 -0.46099,-1.76903 z m 66.884,0.91667 c 0.048,-1.16495 0.28494,-1.4019 0.60416,-0.60417 0.28887,0.72187 0.25335,1.58437 -0.0789,1.91667 -0.33229,0.33229 -0.56864,-0.25834 -0.52522,-1.3125 z M 53.8125,171.31689 c 0.721875,-0.28887 1.584375,-0.25335 1.916667,0.0789 0.332291,0.33229 -0.258334,0.56864 -1.3125,0.52522 -1.164943,-0.048 -1.4019,-0.28494 -0.604167,-0.60416 z"
         id="path59485" />
      <path
         style="fill:#494949;fill-opacity:1"
         d="m 414.27236,302 c 0,-2.475 0.19502,-3.4875 0.43337,-2.25 0.23836,1.2375 0.23836,3.2625 0,4.5 -0.23835,1.2375 -0.43337,0.225 -0.43337,-2.25 z m -116.85404,-2.99101 c 0.0643,-3.53547 0.45819,-4.52445 1.85128,-4.64821 1.13841,-0.10113 1.2462,0.007 0.30221,0.30428 -0.89086,0.28017 -1.61822,2.10643 -1.85128,4.64821 l -0.38389,4.18673 0.0817,-4.49101 z M 406.75,297.29427 c 1.2375,-0.23836 3.2625,-0.23836 4.5,0 1.2375,0.23835 0.225,0.43337 -2.25,0.43337 -2.475,0 -3.4875,-0.19502 -2.25,-0.43337 z M 157.39172,282 c 0,-7.425 0.15742,-10.4625 0.34983,-6.75 0.19241,3.7125 0.19241,9.7875 0,13.5 -0.19241,3.7125 -0.34983,0.675 -0.34983,-6.75 z m 425.48072,-0.75 c -1.24387,-1.58606 -1.2085,-1.62143 0.37756,-0.37756 1.66575,1.30637 2.19548,2.12756 1.37244,2.12756 -0.20765,0 -0.99515,-0.7875 -1.75,-1.75 z M 297.19495,278.5 c 0.0204,-1.65 0.2445,-2.20394 0.49804,-1.23097 0.25354,0.97297 0.23687,2.32297 -0.0371,3 -0.27393,0.67703 -0.48137,-0.11903 -0.46099,-1.76903 z M 621.5,273 c 0.99549,-1.1 2.03498,-2 2.30998,-2 0.275,0 -0.31449,0.9 -1.30998,2 -0.99549,1.1 -2.03498,2 -2.30998,2 -0.275,0 0.31449,-0.9 1.30998,-2 z m -409.6875,-5.68311 c 0.72187,-0.28887 1.58437,-0.25335 1.91667,0.0789 0.33229,0.33229 -0.25834,0.56864 -1.3125,0.52522 -1.16495,-0.048 -1.4019,-0.28494 -0.60417,-0.60416 z m 423,0 c 0.72187,-0.28887 1.58438,-0.25335 1.91667,0.0789 0.33229,0.33229 -0.25834,0.56864 -1.3125,0.52522 -1.16495,-0.048 -1.4019,-0.28494 -0.60417,-0.60416 z M 299.44956,207 c 0,-18.975 0.13447,-26.7375 0.29883,-17.25 0.16436,9.4875 0.16436,25.0125 0,34.5 -0.16436,9.4875 -0.29883,1.725 -0.29883,-17.25 z m 108.8228,28 c 0,-2.475 0.19502,-3.4875 0.43337,-2.25 0.23836,1.2375 0.23836,3.2625 0,4.5 -0.23835,1.2375 -0.43337,0.225 -0.43337,-2.25 z m -54.11447,1 c 0,-1.375 0.22698,-1.9375 0.50439,-1.25 0.27741,0.6875 0.27741,1.8125 0,2.5 -0.27741,0.6875 -0.50439,0.125 -0.50439,-1.25 z m 36.15198,-6.5 c 0.006,-3.3 0.1923,-4.52944 0.41486,-2.73209 0.22256,1.79735 0.21797,4.49735 -0.0102,6 -0.22818,1.50265 -0.41027,0.0321 -0.40466,-3.26791 z M 337.29966,228 c 0,-3.025 0.18747,-4.2625 0.41659,-2.75 0.22913,1.5125 0.22913,3.9875 0,5.5 -0.22912,1.5125 -0.41659,0.275 -0.41659,-2.75 z M 253.75,230.33772 c 0.6875,-0.27741 1.8125,-0.27741 2.5,0 0.6875,0.27741 0.125,0.50439 -1.25,0.50439 -1.375,0 -1.9375,-0.22698 -1.25,-0.50439 z m 451.51903,-0.0307 c 0.97297,-0.25354 2.32297,-0.23687 3,0.0371 0.67703,0.27393 -0.11903,0.48137 -1.76903,0.46099 -1.65,-0.0204 -2.20394,-0.2445 -1.23097,-0.49804 z M 465,224.62244 c 0,-0.20765 0.7875,-0.99515 1.75,-1.75 1.58606,-1.24387 1.62143,-1.2085 0.37756,0.37756 C 465.82119,224.91575 465,225.44548 465,224.62244 Z M 603.27236,221 c 0,-2.475 0.19502,-3.4875 0.43337,-2.25 0.23836,1.2375 0.23836,3.2625 0,4.5 -0.23835,1.2375 -0.43337,0.225 -0.43337,-2.25 z m -106.11447,1 c 0,-1.375 0.22698,-1.9375 0.50439,-1.25 0.27741,0.6875 0.27741,1.8125 0,2.5 -0.27741,0.6875 -0.50439,0.125 -0.50439,-1.25 z M 360.94617,216.25 357.5,212.5 l 3.75,3.44617 c 2.0625,1.89539 3.75,3.58289 3.75,3.75 0,0.76362 -0.84622,0.0443 -4.05383,-3.44617 z M 472,217.62244 c 0,-0.20765 0.7875,-0.99515 1.75,-1.75 1.58606,-1.24387 1.62143,-1.2085 0.37756,0.37756 C 472.82119,217.91575 472,218.44548 472,217.62244 Z M 479.15789,214 c 0,-1.375 0.22698,-1.9375 0.50439,-1.25 0.27741,0.6875 0.27741,1.8125 0,2.5 -0.27741,0.6875 -0.50439,0.125 -0.50439,-1.25 z m 124.19152,-6 c 0,-4.675 0.17226,-6.5875 0.3828,-4.25 0.21053,2.3375 0.21053,6.1625 0,8.5 -0.21054,2.3375 -0.3828,0.425 -0.3828,-4.25 z m 60.01582,-3.5 c 0.003,-5.5 0.17053,-7.62242 0.37317,-4.71648 0.20265,2.90594 0.20052,7.40594 -0.005,10 -0.20525,2.59406 -0.37104,0.21648 -0.36844,-5.28352 z m -624.096198,4.80701 c 0.972967,-0.25354 2.322967,-0.23687 3,0.0371 0.677032,0.27393 -0.119032,0.48137 -1.769032,0.46099 -1.65,-0.0204 -2.203936,-0.2445 -1.230968,-0.49804 z M 568.15789,207 c 0,-1.375 0.22698,-1.9375 0.50439,-1.25 0.27741,0.6875 0.27741,1.8125 0,2.5 -0.27741,0.6875 -0.50439,0.125 -0.50439,-1.25 z m 19,0 c 0,-1.375 0.22698,-1.9375 0.50439,-1.25 0.27741,0.6875 0.27741,1.8125 0,2.5 -0.27741,0.6875 -0.50439,0.125 -0.50439,-1.25 z m -179.96294,-3.5 c 0.0204,-1.65 0.2445,-2.20394 0.49804,-1.23097 0.25354,0.97297 0.23687,2.32297 -0.0371,3 -0.27393,0.67703 -0.48137,-0.11903 -0.46099,-1.76903 z m 19.884,0.91667 c 0.048,-1.16495 0.28494,-1.4019 0.60416,-0.60417 0.28887,0.72187 0.25335,1.58437 -0.0789,1.91667 -0.33229,0.33229 -0.56864,-0.25834 -0.52522,-1.3125 z M 603.25218,193.5 c 0.0111,-2.2 0.21589,-2.98225 0.45508,-1.73834 0.23919,1.24391 0.23011,3.04391 -0.0202,4 -0.25029,0.95609 -0.446,-0.0617 -0.4349,-2.26166 z m -265.05723,-2 c 0.0204,-1.65 0.2445,-2.20394 0.49804,-1.23097 0.25354,0.97297 0.23687,2.32297 -0.0371,3 -0.27393,0.67703 -0.48137,-0.11903 -0.46099,-1.76903 z m 108.67749,-3.25 c -1.24387,-1.58606 -1.2085,-1.62143 0.37756,-0.37756 0.9625,0.75485 1.75,1.54235 1.75,1.75 0,0.82304 -0.82119,0.29331 -2.12756,-1.37244 z M 406.15789,183 c 0,-1.375 0.22698,-1.9375 0.50439,-1.25 0.27741,0.6875 0.27741,1.8125 0,2.5 -0.27741,0.6875 -0.50439,0.125 -0.50439,-1.25 z m 169.2471,-3.25 -1.90499,-2.25 2.25,1.90499 c 2.11444,1.79022 2.70524,2.59501 1.90499,2.59501 -0.18976,0 -1.20226,-1.0125 -2.25,-2.25 z m -147.32604,-2.33333 c 0.048,-1.16495 0.28494,-1.4019 0.60416,-0.60417 0.28887,0.72187 0.25335,1.58437 -0.0789,1.91667 -0.33229,0.33229 -0.56864,-0.25834 -0.52522,-1.3125 z m 4.79349,-3.16667 c -1.24387,-1.58606 -1.2085,-1.62143 0.37756,-0.37756 0.9625,0.75485 1.75,1.54235 1.75,1.75 0,0.82304 -0.82119,0.29331 -2.12756,-1.37244 z M 26.199419,171.25617 c 4.78468,-0.18291 12.88468,-0.18377 18,-0.002 5.115319,0.18186 1.200581,0.33151 -8.699419,0.33256 -9.9,0.001 -14.085262,-0.14774 -9.300581,-0.33065 z m 75.050581,-0.003 c 6.4625,-0.17418 17.0375,-0.17418 23.5,0 6.4625,0.17419 1.175,0.3167 -11.75,0.3167 -12.925,0 -18.2125,-0.14251 -11.75,-0.3167 z m 63.94942,0.003 c 4.78468,-0.18291 12.88468,-0.18377 18,-0.002 5.11532,0.18186 1.20058,0.33151 -8.69942,0.33256 -9.9,0.001 -14.08526,-0.14774 -9.30058,-0.33065 z m 139.05058,0.009 c 2.6125,-0.206 6.8875,-0.206 9.5,0 2.6125,0.206 0.475,0.37454 -4.75,0.37454 -5.225,0 -7.3625,-0.16854 -4.75,-0.37454 z m 346.03017,-0.001 c 2.6291,-0.20668 6.6791,-0.20418 9,0.006 2.32091,0.20972 0.16983,0.37882 -4.78017,0.37577 -4.95,-0.003 -6.84892,-0.17464 -4.21983,-0.38131 z"
         id="path59483" />
      <path
         style="fill:#333333;fill-opacity:1"
         d="M 159.1228,306.01943 C 150.11685,303.83578 147.82754,298.47206 148.23077,280.5 l 0.26923,-12 4.25,-0.3075 4.25,-0.3075 v 13.5575 c 0,12.22417 0.19669,13.75419 2,15.5575 1.1,1.1 3.2375,1.99311 4.75,1.98469 5.431,-0.0302 5.70961,-0.75222 6.25,-16.19554 l 0.5,-14.28915 4.25,-0.3075 4.25,-0.3075 v 14.60716 c 0,16.09588 -0.86117,19.36209 -5.76693,21.87267 -3.72194,1.90474 -10.0286,2.64427 -14.11027,1.6546 z m 47.08624,0.007 c -3.4703,-0.83364 -6.75414,-3.30789 -8.35147,-6.29254 -0.78852,-1.47336 -0.38078,-2.03088 2.31388,-3.1639 3.04543,-1.28051 3.47239,-1.20599 6.18946,1.08027 3.57015,3.00408 8.24773,2.85632 10.34891,-0.32693 1.28365,-1.94471 1.23165,-2.38183 -0.48798,-4.10146 -1.13505,-1.13505 -4.08986,-2.21198 -7.2017,-2.62478 C 201.79393,289.63847 198,285.92114 198,279.79943 198,272.08612 202.95292,268 212.30246,268 c 9.33331,0 16.35783,6.98874 9.46204,9.41386 -2.25271,0.79224 -3.14652,0.57588 -5.06445,-1.22592 -4.31932,-4.0578 -11.74801,-2.06513 -10.22228,2.74202 0.62482,1.96862 2.11425,2.58912 12.16325,5.06724 4.43202,1.09296 6.99843,3.95006 7.98668,8.89132 0.75586,3.7793 -2.12834,9.80961 -5.51254,11.52568 -3.52239,1.78613 -10.87268,2.58112 -14.90612,1.6122 z m 425.1312,4.9e-4 c -10.70293,-2.49768 -17.21644,-13.34552 -14.36703,-23.9274 1.34417,-4.99188 6.32257,-10.9073 10.72905,-12.74845 7.84457,-3.27767 18.83685,-0.61578 23.29156,5.64028 l 2.16224,3.03659 -4.21218,1.88585 -4.21218,1.88585 -2.25972,-2.62708 c -4.80192,-5.58256 -14.61951,-2.2335 -16.06673,5.48083 -1.9336,10.30697 7.8129,17.24118 15.33601,10.9109 2.49023,-2.09539 3.42028,-2.3172 6.65595,-1.58744 5.01028,1.13 5.16927,1.41889 2.69399,4.8951 -4.13684,5.80965 -12.51308,8.84402 -19.75096,7.15497 z M 96.843834,302.25 c 1.036465,-2.0625 4.729256,-9.6 8.206206,-16.75 3.47694,-7.15 7.10415,-14.30077 8.06046,-15.89061 l 1.73873,-2.89061 9.57539,19.13061 C 129.69108,296.37123 134,305.2095 134,305.49 c 0,0.2805 -2.23844,0.51 -4.97432,0.51 -4.51561,0 -5.11738,-0.27665 -6.52568,-3 -1.49477,-2.89057 -1.80133,-3 -8.40436,-3 -6.67163,0 -6.88589,0.0794 -8.09564,3 -1.14157,2.75599 -1.64112,3 -6.141644,3 H 94.959352 Z M 118,293.03393 C 118,291.59946 114.72708,285 114.01568,285 c -0.33765,0 -1.26456,1.6875 -2.0598,3.75 -0.79525,2.0625 -1.59815,4.0875 -1.78423,4.5 -0.18607,0.4125 1.49918,0.75 3.74502,0.75 C 116.1625,294 118,293.56527 118,293.03393 Z m 133.17657,-2.03519 c 0.36079,-16.73425 0.8809,-15.60299 -6.92657,-15.0659 -3.17193,0.2182 -3.25,0.12561 -3.25,-3.85464 V 268 h 15 15 v 4 4 h -5 -5 v 15 15 h -5.07343 -5.07344 z M 288,287.05878 v -19.05079 l 11.25,0.25362 c 12.01083,0.27078 15.13394,1.33389 17.61162,5.995 2.42592,4.56374 1.78811,12.316 -1.23483,15.0086 l -2.37321,2.11387 3.99214,6.56046 c 2.19567,3.60825 4.19017,6.89796 4.43222,7.31046 0.24205,0.4125 -1.94896,0.74513 -4.86892,0.73917 l -5.30902,-0.0108 -3.47531,-6.03611 c -3.31063,-5.75008 -3.64232,-6.02203 -7,-5.73916 L 297.5,294.5 l -0.0907,5.5 -0.0907,5.5 -4.6593,0.30479 L 288,306.10958 Z M 307,286 c 4.45503,-4.45503 1.32679,-10 -5.64158,-10 h -4.33161 l 0.39101,5.75 c 0.21506,3.1625 0.43403,5.8625 0.4866,6 0.0526,0.1375 1.67058,0.25 3.59558,0.25 2.16667,0 4.2619,-0.7619 5.5,-2 z m 30.49772,14.60106 C 341.25094,292.11437 353.96017,267 354.50167,267 354.98988,267 374,304.52628 374,305.49 c 0,0.2805 -2.23844,0.51 -4.97432,0.51 -4.51561,0 -5.11738,-0.27665 -6.52568,-3 -1.49477,-2.89057 -1.80133,-3 -8.40436,-3 -6.67163,0 -6.88589,0.0794 -8.09564,3 -1.13783,2.74697 -1.64949,3 -6.06629,3 h -4.82365 z M 358,293.03393 C 358,291.49826 354.7026,285 353.92337,285 353.31223,285 350,292.19304 350,293.52024 c 0,0.26387 1.8,0.47976 4,0.47976 2.2,0 4,-0.43473 4,-0.96607 z M 391,287 v -19 h 4.5 4.5 v 15.08206 15.08206 l 7.00225,-0.33206 7.00226,-0.33206 -0.002,4.25 -0.002,4.25 h -11.5 -11.5 v -19 z m 40,0 v -19 h 5 5 v 19 19 h -5 -5 z m 30.41571,9.75 c 4.63228,-9.96545 12.89917,-26.36234 14.4528,-28.66627 0.70843,-1.05055 3.43092,3.53029 10.54327,17.74001 C 491.6853,296.35968 496,305.2095 496,305.49 c 0,0.2805 -2.23844,0.51 -4.97432,0.51 -4.51561,0 -5.11738,-0.27665 -6.52568,-3 -1.49477,-2.89057 -1.80133,-3 -8.40436,-3 -6.67163,0 -6.88589,0.0794 -8.09564,3 -1.13768,2.74661 -1.64982,3 -6.06332,3 h -4.82069 z M 480,293.03393 C 480,291.49826 476.7026,285 475.92337,285 475.31223,285 472,292.19304 472,293.52024 c 0,0.26387 1.8,0.47976 4,0.47976 2.2,0 4,-0.43473 4,-0.96607 z m 56,-6.08872 v -19.05479 l 4.75,0.30479 4.75,0.30479 0.27207,18.75 0.27206,18.75 H 541.02207 536 Z M 566,287 c 0,-10.45 0.33939,-19 0.7542,-19 0.41481,0 5.47731,4.03197 11.25,8.95993 l 10.4958,8.95993 0.28826,-9.01556 0.28826,-9.01556 4.21174,0.30563 4.21174,0.30563 0.27207,18.75 c 0.14963,10.3125 -0.0298,18.75 -0.39878,18.75 -0.87646,0 -10.60274,-7.98757 -16.55112,-13.59236 C 578.24936,289.98344 575.88686,288 575.57217,288 575.25748,288 575,292.05 575,297 v 9 H 570.5 566 Z M 242.19605,242.10276 c -7.23655,-2.49946 -14.23651,-9.55981 -14.18078,-14.3031 0.008,-0.71481 2.86339,-2.45881 6.34443,-3.87556 l 6.32916,-2.5759 3.18671,3.79574 c 2.02124,2.40753 4.59672,4.17542 7.04202,4.83387 11.81462,3.18135 20.39398,-7.44218 10.57691,-13.09703 -1.64697,-0.94869 -6.97478,-2.40349 -11.83957,-3.23287 -10.8233,-1.84523 -15.50817,-4.64757 -18.66233,-11.1632 -3.08622,-6.37528 -2.47969,-16.63917 1.32281,-22.38514 7.0034,-10.58285 30.07709,-13.39304 41.57559,-5.06357 3.87943,2.81024 7.109,7.43015 7.109,10.16943 0,0.71761 -2.77148,2.37942 -6.15885,3.6929 l -6.15886,2.38815 -2.59114,-3.04237 c -3.37812,-3.96639 -6.517,-5.4878 -11.18906,-5.42332 -4.80143,0.0663 -7.742,1.62795 -8.92521,4.74001 -2.29638,6.03995 2.15386,9.07132 17.52312,11.93626 14.00484,2.61061 20.02903,9.10001 19.96144,21.50294 -0.0434,7.96043 -2.639,13.46889 -8.13555,17.26535 -7.99652,5.52319 -23.16296,7.27991 -33.12984,3.83741 z m 295.66453,-0.35146 c -10.78997,-3.78518 -18.59536,-11.43405 -22.56813,-22.11555 -1.95147,-5.24689 -2.14722,-18.87152 -0.34661,-24.1252 7.30974,-21.32782 31.11424,-31.36353 51.39807,-21.66886 12.71041,6.07495 19.72158,16.57513 20.45987,30.64143 0.72267,13.76872 -4.02123,24.52468 -14.16411,32.11459 -9.59957,7.18336 -23.23391,9.2037 -34.77909,5.15359 z m 19.68079,-16.63096 c 8.43896,-3.83329 12.52575,-13.04607 10.32969,-23.28598 -3.62231,-16.89023 -25.48915,-20.0333 -33.63338,-4.83436 -3.32501,6.20519 -2.79204,16.05282 1.19486,22.07743 4.77458,7.21487 13.98601,9.73259 22.10883,6.04291 z m 97.85007,13.0529 c -3.9097,-3.16464 -11.50141,-9.56075 -16.87045,-14.21357 -5.36904,-4.65282 -11.50769,-9.95949 -13.64144,-11.79261 L 621,208.83413 V 225.41706 242 h -8.5 -8.5 l -0.0609,-12.75 c -0.14242,-29.81912 0.1188,-58.64124 0.53526,-59.05769 0.60434,-0.60435 17.49604,13.15303 30.15262,24.55769 5.64597,5.0875 10.51462,9.25 10.81921,9.25 0.3046,0 0.55381,-7.2 0.55381,-16 v -16 h 8.5 8.5 v 36 c 0,19.8 -0.1125,35.98361 -0.25,35.96357 -0.1375,-0.02 -3.44885,-2.62568 -7.35856,-5.79033 z m 37.80461,3.92952 c -5.85898,-2.02366 -10.00638,-5.47849 -12.79669,-10.65979 -2.19747,-4.08044 -1.88882,-4.46639 6.1657,-7.71007 l 6.06506,-2.44249 1.66586,2.90258 c 2.34855,4.09212 9.6292,7.1644 14.87703,6.27778 7.43531,-1.25619 10.36695,-7.73598 5.54813,-12.26302 -2.17177,-2.04027 -4.76972,-2.80176 -18.04318,-5.28865 -10.93743,-2.04922 -17.68983,-11.67449 -16.32147,-23.26561 1.4136,-11.97437 11.98662,-19.60597 27.21201,-19.64162 10.82891,-0.0254 21.79171,5.84547 24.28819,13.00687 1.17307,3.36508 1.36773,3.17707 -6.23415,6.0213 l -5.74633,2.14997 -3.23831,-3.74616 c -2.88316,-3.33533 -3.86208,-3.7979 -8.92615,-4.21785 C 700.30084,182.61143 697,184.52951 697,189.45047 c 0,4.45994 3.3267,7.08583 10.81076,8.53332 11.99367,2.3197 15.29269,3.28524 18.41563,5.38979 12.21795,8.23368 11.79371,27.88857 -0.76956,35.6531 -8.10959,5.012 -22.64352,6.39782 -32.26078,3.07608 z M 18,207 v -35 h 20.039838 c 18.069263,0 20.4255,0.19675 23.961845,2.00086 5.243966,2.67527 7.760879,5.45099 10.741547,11.84607 2.202893,4.72635 2.443811,6.35778 2.075741,14.05628 -0.464582,9.71714 -2.433217,14.1753 -8.202759,18.57595 C 62.342198,221.73911 53.19914,224 44.289901,224 H 37 v 9 9 H 27.5 18 Z m 30.062846,2 c 2.975797,0 7.815742,-4.8359 8.502213,-8.4951 C 58.195286,191.81504 52.665078,186.01018 42.75,186.00374 L 37,186 v 12.13592 12.13593 l 4.639571,-0.63593 C 44.191335,209.28617 47.081809,209 48.062846,209 Z M 90,207.03523 v -34.96477 l 23.50818,-0.28523 c 12.92949,-0.15688 23.95449,-0.13523 24.5,0.0481 0.5455,0.18334 0.99182,3.44584 0.99182,7.25 V 186 H 123.5 108 v 6.5 6.5 h 15 15 v 7.5 7.5 h -15 -15 v 6.5 6.5 h 16 16 v 7.5 7.5 H 115 90 Z m 65.23721,-0.11672 0.26279,-35.08149 19.99539,0.12053 c 18.78086,0.1132 20.31013,0.26462 25.17712,2.4928 5.56713,2.54871 9.13374,6.93144 11.34861,13.94544 2.60179,8.23926 -0.87569,21.31322 -6.6807,25.11681 l -2.28125,1.49474 6.8744,11.38266 c 3.78092,6.26047 7.38344,12.33382 8.0056,13.49633 1.11813,2.08925 1.01238,2.11308 -9.15399,2.06251 l -10.28518,-0.0511 -6,-10.19885 -6,-10.19884 h -6.5 -6.5 l -0.28498,10.25 -0.28499,10.25 h -8.97781 -8.97781 l 0.2628,-35.08149 z m 35.13004,-1.79379 c 5.20035,-4.88549 3.97241,-15.49875 -2.08341,-18.00715 -1.6292,-0.67484 -5.62205,-1.08986 -8.87301,-0.92227 L 173.5,186.5 l -0.28496,10.86107 -0.28496,10.86106 7.47168,-0.3773 c 6.14738,-0.31043 7.91369,-0.79255 9.96549,-2.72011 z M 299.5,207 v -35 h 9.25 9.25 v 35 35 h -9.25 -9.25 z m 37.95994,23.75 c 0.29783,-6.1875 0.81843,-22.44285 1.15689,-36.12301 l 0.61539,-24.87301 16.74423,16.7225 16.74422,16.72249 9.38967,-9.82565 c 18.22371,-19.06989 22.87293,-23.72322 23.27995,-23.30047 0.40239,0.41792 2.32274,41.36188 2.89279,61.67715 L 408.57069,242 H 399.78535 391 l -0.125,-9 c -0.0688,-4.95 -0.2375,-9.45 -0.375,-10 -0.1375,-0.55 -0.30625,-3.57757 -0.375,-6.72792 l -0.125,-5.72792 -8.27089,8.22792 C 377.18012,223.29743 372.98994,227 372.41759,227 c -0.57235,0 -4.36026,-3.6 -8.41759,-8 -4.05733,-4.4 -7.74214,-8 -8.18848,-8 -0.44634,0 -0.81152,4.20899 -0.81152,9.35331 0,5.14432 -0.28911,12.11932 -0.64246,15.5 L 353.71509,242 h -8.39832 -8.39833 z m 89.57136,-3 c 0.0387,-17.6166 1.63829,-55.75292 2.36916,-56.4838 0.29616,-0.29615 7.7102,6.79705 16.47565,15.76268 l 15.93718,16.30115 16.23241,-16.69263 c 8.92782,-9.18094 16.39664,-16.5284 16.59736,-16.32767 0.44946,0.44946 1.99791,28.89106 2.90946,53.44027 L 498.23017,242 H 489.11509 480 v -14.94098 c 0,-8.21754 -0.39508,-15.18516 -0.87795,-15.48359 -0.48287,-0.29843 -4.28758,3.05001 -8.4549,7.44099 -4.16733,4.39097 -7.94531,7.98358 -8.39552,7.98358 -0.4502,0 -4.39744,-3.6 -8.77163,-8 -4.37419,-4.4 -8.30114,-8 -8.72654,-8 C 444.34806,211 444,217.975 444,226.5 V 242 h -8.5 -8.5 z"
         id="path59481" />
    </g>
    <path
       style="fill:#f9a514;fill-opacity:1;stroke-width:1.30223"
       d="m 367.87913,746.12498 c -43.26178,-4.39626 -79.75296,-14.00027 -109.38707,-28.78928 -17.44387,-8.70543 -33.16477,-19.2385 -32.2545,-21.61064 0.41484,-1.08103 -0.037,-1.73003 -1.10103,-1.58146 -4.24072,0.59214 -5.43173,0.007 -3.85415,-1.89401 1.15543,-1.39221 1.15879,-2.06368 0.0139,-2.77129 -0.83108,-0.51363 -1.94993,-0.22375 -2.48635,0.64418 -1.33274,2.15642 -16.47737,-13.11891 -24.924,-25.13911 l -6.54361,-9.31207 12.71106,-0.37574 12.71107,-0.37573 11.7949,11.7404 c 12.7505,12.69159 25.90285,21.77083 44.35058,30.61577 10.72082,5.1402 23.27064,10.79976 24.7451,11.15922 0.32985,0.0804 4.56618,1.31344 9.41406,2.74006 16.15677,4.75456 45.08857,10.26554 61.55452,11.72501 21.00612,1.86189 68.41987,0.71106 83.99365,-2.03869 18.93499,-3.34321 43.27573,-9.73966 57.80014,-15.18916 7.43842,-2.79087 14.61695,-5.07431 15.95228,-5.07431 1.33531,0 2.42786,-0.51923 2.42786,-1.15385 0,-0.63461 2.1975,-2.1904 4.88335,-3.4573 10.00537,-4.71948 28.56403,-18.29919 39.76422,-29.09619 l 11.56269,-11.14647 8.98955,-0.50796 c 4.94424,-0.27937 10.4861,-0.13234 12.31525,0.32675 3.31184,0.83122 3.31619,0.85085 1.04026,4.70368 -1.25702,2.12794 -2.6816,3.86899 -3.16576,3.86899 -0.48415,0 -1.21362,1.32814 -1.62105,2.95143 -0.90403,3.60198 -18.82263,22.26479 -26.88834,28.00509 -38.89256,27.67953 -76.33482,41.94098 -128.92048,49.10475 -18.32642,2.49662 -58.98107,3.54338 -74.87805,1.92793 z m 87.24921,-7.76226 c 0.44265,-0.71623 -0.10873,-1.30223 -1.22537,-1.30223 -1.11661,0 -2.0302,0.586 -2.0302,1.30223 0,0.71622 0.55142,1.30222 1.22537,1.30222 0.67396,0 1.58755,-0.586 2.0302,-1.30222 z M 224.50002,669.12765 c -0.36887,-0.59686 -1.2221,-1.08519 -1.89605,-1.08519 -0.67396,0 -1.22538,0.48833 -1.22538,1.08519 0,0.59685 0.85323,1.08519 1.89606,1.08519 1.04283,0 1.59425,-0.48834 1.22537,-1.08519 z m -8.33034,-8.89855 c 0,-0.71623 -0.586,-1.30223 -1.30222,-1.30223 -0.71623,0 -1.30223,0.586 -1.30223,1.30223 0,0.71622 0.586,1.30222 1.30223,1.30222 0.71622,0 1.30222,-0.586 1.30222,-1.30222 z"
       id="path69140"
       transform="scale(0.26458333)" />
    <path
       style="fill:#f9a514;fill-opacity:1;stroke-width:1.30223"
       d="m 381.86129,460.98658 c -10.84706,-5.42912 -15.51149,-9.11381 -11.53715,-9.11381 1.16203,0 2.11279,-0.586 2.11279,-1.30222 0,-1.78573 -1.74485,-1.63406 -3.74517,0.32555 -3.94727,3.86695 -23.21039,-22.78621 -25.78992,-35.68389 l -0.79428,-3.97139 -8.60096,0.9473 c -25.66709,2.82695 -43.46923,-0.75766 -62.96208,-12.67792 l -4.87649,-2.98207 -5.54132,3.11764 c -6.33723,3.56543 -32.23698,23.48656 -32.23698,24.79549 0,0.47689 -2.82886,4.06057 -6.28634,7.96372 -3.45749,3.90315 -9.68272,12.81016 -13.83383,19.79335 l -7.54749,12.69671 h -11.64158 -11.64158 l 7.33997,-14.12693 c 7.2406,-13.93571 19.61663,-31.67686 28.29879,-40.5666 6.86953,-7.03377 20.45699,-18.68935 24.01107,-20.59715 1.75705,-0.94317 4.33317,-2.70118 5.72469,-3.90668 1.39153,-1.2055 6.15611,-4.25441 10.58797,-6.77535 6.40895,-3.64555 9.31856,-6.44367 14.21817,-13.67338 25.95844,-38.3035 76.64621,-53.06159 115.53201,-33.63794 l 9.56356,4.77703 6.71428,-2.99784 c 18.83613,-8.41008 24.10757,-9.65112 41.22331,-9.70505 17.58566,-0.0554 33.44314,3.2181 40.56396,8.37375 1.89777,1.37404 4.95093,2.87484 6.78482,3.33511 1.83387,0.46027 4.85287,2.2442 6.70885,3.96428 1.856,1.72008 3.85323,3.12741 4.43829,3.12741 1.54744,0 16.449,16.10195 20.33261,21.97046 2.46151,3.71959 5.8995,6.263 13.35555,9.88035 20.27714,9.83759 47.45174,31.31114 57.96833,45.80696 2.00853,2.76851 6.03093,8.25666 8.93866,12.1959 5.15613,6.98523 16.70958,28.57672 16.70958,31.22743 0,0.80239 -4.54451,1.32824 -11.47886,1.32824 h -11.47886 l -2.31419,-4.88335 c -9.62151,-20.30306 -28.28403,-41.43443 -48.48411,-54.89806 -7.67751,-5.11716 -15.28605,-9.63697 -16.90784,-10.04402 -1.97556,-0.49583 -4.36986,0.33434 -7.25484,2.51546 -6.7379,5.09403 -19.33966,11.0437 -28.49814,13.45483 -7.69885,2.02687 -19.54816,2.44231 -39.47976,1.38419 -4.99043,-0.26493 -5.10724,-0.16485 -7.30302,6.25712 -4.70543,13.762 -13.06104,25.64009 -23.76489,33.78348 -5.31448,4.04319 -23.40344,13.73258 -25.63715,13.73258 -0.59389,0 -5.76459,-2.3448 -11.49043,-5.21069 z m 214.12461,0.6529 c 0,-1.07434 -0.45376,-1.95334 -1.00834,-1.95334 -1.46671,0 -2.53351,2.10113 -1.56072,3.07393 1.42121,1.42121 2.56906,0.92054 2.56906,-1.12059 z M 402.55685,438.26601 c 6.80234,-3.8019 14.72383,-13.75369 18.17272,-22.83046 3.9925,-10.50738 3.51582,-12.31386 -4.62315,-17.52029 -8.38577,-5.36431 -21.83098,-18.4594 -24.75139,-24.10685 -1.13082,-2.18677 -1.60148,-3.99376 -1.04592,-4.01554 0.55555,-0.0218 0.031,-0.61092 -1.16564,-1.30921 -3.25688,-1.90048 -7.58308,0.28737 -13.70851,6.93268 -7.08282,7.68395 -10.57469,14.73362 -11.59409,23.40702 -1.64528,13.99884 6.00389,29.07024 19.29769,38.0228 8.08533,5.44498 11.7386,5.71211 19.41829,1.41985 z m 143.8204,-36.62199 c -1.37905,-1.00838 -2.8422,-1.49856 -3.25148,-1.08929 -0.40926,0.40927 0.38418,1.56917 1.76322,2.57755 1.37904,1.00837 2.8422,1.49855 3.25148,1.08928 0.40926,-0.40927 -0.38419,-1.56917 -1.76322,-2.57754 z m -260.54764,0.75904 c 0.45622,-0.73818 -0.0665,-0.95649 -1.22537,-0.51179 -2.256,0.86571 -2.66877,1.7991 -0.7956,1.7991 0.67395,0 1.58339,-0.57929 2.02097,-1.28731 z m 51.44719,-12.98242 c 5.54916,-1.45132 6.08836,-2.01534 10.16452,-10.63254 2.87546,-6.07886 7.37709,-12.33456 13.5596,-18.84315 5.29599,-5.5753 8.74672,-10.20372 8.06666,-10.81973 -4.51415,-4.08896 -28.89967,-5.29531 -41.60945,-2.0584 -15.82052,4.02915 -31.35362,14.10191 -39.86466,25.85107 -5.96925,8.2403 -5.22652,10.07288 5.73316,14.14576 5.19263,1.9297 10.90616,3.77991 12.69672,4.11157 5.35153,0.99126 24.96465,-0.10982 31.25345,-1.75458 z m 143.84954,1.14586 c 11.09139,-2.05036 21.53329,-6.96143 21.53329,-10.12761 0,-3.48586 -9.04893,-14.67272 -16.86813,-20.85344 -3.52906,-2.78956 -10.97286,-6.96876 -16.54178,-9.28711 -8.41945,-3.50502 -12.34855,-4.32865 -23.32147,-4.88868 -8.46194,-0.43187 -15.71929,-0.0788 -20.2292,0.98404 -8.17798,1.92735 -19.40422,7.25049 -19.40422,9.20088 0,5.49845 16.51521,22.42251 27.12962,27.80124 14.60557,7.4012 32.17109,10.0417 47.70189,7.17068 z m -134.26303,-1.85174 c 0.41226,-1.07433 0.2537,-1.95334 -0.35234,-1.95334 -0.60605,0 -1.83142,0.87901 -2.72304,1.95334 -1.31971,1.59016 -1.2542,1.95334 0.35234,1.95334 1.08541,0 2.31077,-0.879 2.72304,-1.95334 z m 58.12929,-8.24743 c 0,-1.6956 -1.54805,-2.82328 -2.80733,-2.045 -1.34679,0.83236 -0.1855,3.13018 1.58196,3.13018 0.67396,0 1.22537,-0.48833 1.22537,-1.08518 z m -33.8579,-2.89835 c 0,-0.67396 -0.586,-1.22537 -1.30223,-1.22537 -0.71622,0 -1.30223,0.91358 -1.30223,2.03019 0,1.11661 0.58601,1.66803 1.30223,1.22537 0.71623,-0.44265 1.30223,-1.35623 1.30223,-2.03019 z m 37.76458,-11.06893 c 0,-1.11661 -0.586,-1.66802 -1.30222,-1.22537 -0.71623,0.44265 -1.30223,1.35624 -1.30223,2.03019 0,0.67396 0.586,1.22537 1.30223,1.22537 0.71622,0 1.30222,-0.91358 1.30222,-2.03019 z M 285.18772,351.74062 c 0,-0.6396 -0.87901,-1.50021 -1.95334,-1.91247 -1.98496,-0.7617 -2.66696,0.62546 -1.08519,2.20722 1.24453,1.24453 3.03853,1.07051 3.03853,-0.29475 z"
       id="path69179"
       transform="scale(0.26458333)" />
  </g>
</svg>
